<svg width="100" height="100" viewBox="0 0 100 100" fill="none" xmlns="http://www.w3.org/2000/svg">
<rect width="100" height="100" fill="#EF3B2D"/>
<path d="M20.764 32.92H36.364C38.86 32.92 41.052 33.336 42.94 34.168C44.828 35 46.284 36.184 47.308 37.72C48.332 39.256 48.844 41.032 48.844 43.048C48.844 45.096 48.3 46.856 47.212 48.328C46.124 49.8 44.636 50.84 42.748 51.448C46.204 51.928 48.06 53.88 48.316 57.304L49.132 67H40.588L40.06 58.696C39.964 57.384 39.58 56.44 38.908 55.864C38.236 55.256 37.1 54.952 35.5 54.952H29.116V67H20.764V32.92ZM35.068 48.136C36.732 48.136 38.012 47.768 38.908 47.032C39.836 46.296 40.3 45.256 40.3 43.912C40.3 42.536 39.836 41.496 38.908 40.792C38.012 40.088 36.7 39.736 34.972 39.736H29.116V48.136H35.068Z" fill="white"/>
<path d="M66.5106 67.768C63.7586 67.768 61.4066 67.208 59.4546 66.088C57.5026 64.936 56.0146 63.368 54.9906 61.384C53.9986 59.4 53.4866 57.112 53.4546 54.52L61.8066 54.136C61.9026 58.68 63.4706 60.952 66.5106 60.952C67.9506 60.952 69.0706 60.44 69.8706 59.416C70.6706 58.36 71.0706 56.76 71.0706 54.616V32.92H79.4226V54.616C79.4226 57.24 78.8786 59.56 77.7906 61.576C76.7026 63.56 75.1826 65.096 73.2306 66.184C71.3106 67.24 69.0706 67.768 66.5106 67.768Z" fill="black"/>
</svg>
