<svg width="465" height="100" viewBox="0 0 465 100" fill="none" xmlns="http://www.w3.org/2000/svg">
<rect width="100" height="100" fill="#EF3B2D"/>
<path d="M20.764 32.92H36.364C38.86 32.92 41.052 33.336 42.94 34.168C44.828 35 46.284 36.184 47.308 37.72C48.332 39.256 48.844 41.032 48.844 43.048C48.844 45.096 48.3 46.856 47.212 48.328C46.124 49.8 44.636 50.84 42.748 51.448C46.204 51.928 48.06 53.88 48.316 57.304L49.132 67H40.588L40.06 58.696C39.964 57.384 39.58 56.44 38.908 55.864C38.236 55.256 37.1 54.952 35.5 54.952H29.116V67H20.764V32.92ZM35.068 48.136C36.732 48.136 38.012 47.768 38.908 47.032C39.836 46.296 40.3 45.256 40.3 43.912C40.3 42.536 39.836 41.496 38.908 40.792C38.012 40.088 36.7 39.736 34.972 39.736H29.116V48.136H35.068Z" fill="white"/>
<path d="M66.5106 67.768C63.7586 67.768 61.4066 67.208 59.4546 66.088C57.5026 64.936 56.0146 63.368 54.9906 61.384C53.9986 59.4 53.4866 57.112 53.4546 54.52L61.8066 54.136C61.9026 58.68 63.4706 60.952 66.5106 60.952C67.9506 60.952 69.0706 60.44 69.8706 59.416C70.6706 58.36 71.0706 56.76 71.0706 54.616V32.92H79.4226V54.616C79.4226 57.24 78.8786 59.56 77.7906 61.576C76.7026 63.56 75.1826 65.096 73.2306 66.184C71.3106 67.24 69.0706 67.768 66.5106 67.768Z" fill="black"/>
<path d="M119.264 32.92H134.864C137.36 32.92 139.552 33.336 141.44 34.168C143.328 35 144.784 36.184 145.808 37.72C146.832 39.256 147.344 41.032 147.344 43.048C147.344 45.096 146.8 46.856 145.712 48.328C144.624 49.8 143.136 50.84 141.248 51.448C144.704 51.928 146.56 53.88 146.816 57.304L147.632 67H139.088L138.56 58.696C138.464 57.384 138.08 56.44 137.408 55.864C136.736 55.256 135.6 54.952 134 54.952H127.616V67H119.264V32.92ZM133.568 48.136C135.232 48.136 136.512 47.768 137.408 47.032C138.336 46.296 138.8 45.256 138.8 43.912C138.8 42.536 138.336 41.496 137.408 40.792C136.512 40.088 135.2 39.736 133.472 39.736H127.616V48.136H133.568ZM165.011 67.768C162.259 67.768 159.907 67.208 157.955 66.088C156.003 64.936 154.515 63.368 153.491 61.384C152.499 59.4 151.987 57.112 151.955 54.52L160.307 54.136C160.403 58.68 161.971 60.952 165.011 60.952C166.451 60.952 167.571 60.44 168.371 59.416C169.171 58.36 169.571 56.76 169.571 54.616V32.92H177.923V54.616C177.923 57.24 177.379 59.56 176.291 61.576C175.203 63.56 173.683 65.096 171.731 66.184C169.811 67.24 167.571 67.768 165.011 67.768Z" fill="black"/>
<path d="M204.583 32.92H214.231L226.519 67H217.975L215.719 60.568H203.047L200.839 67H192.295L204.583 32.92ZM213.511 53.944L209.431 41.944L205.303 53.944H213.511ZM223.701 32.92H232.293L240.837 57.592L249.381 32.92H257.973L245.589 67H235.989L223.701 32.92ZM267.442 32.92H277.09L289.378 67H280.834L278.578 60.568H265.906L263.698 67H255.154L267.442 32.92ZM276.37 53.944L272.29 41.944L268.162 53.944H276.37ZM293.873 32.92H302.657L315.137 54.28V32.92H323.489V67H314.657L302.225 46.552V67H293.873V32.92ZM344.517 67.768C341.381 67.768 338.581 67.064 336.117 65.656C333.653 64.216 331.733 62.168 330.357 59.512C328.981 56.824 328.293 53.656 328.293 50.008C328.293 46.424 328.949 43.288 330.261 40.6C331.605 37.912 333.509 35.832 335.973 34.36C338.469 32.888 341.365 32.152 344.661 32.152C353.557 32.152 358.741 36.488 360.213 45.16L351.573 45.496C351.221 43.448 350.437 41.848 349.221 40.696C348.037 39.544 346.517 38.968 344.661 38.968C342.197 38.968 340.277 39.976 338.901 41.992C337.557 43.976 336.885 46.648 336.885 50.008C336.885 53.368 337.573 56.04 338.949 58.024C340.325 59.976 342.213 60.952 344.613 60.952C346.629 60.952 348.213 60.36 349.365 59.176C350.549 57.96 351.301 56.232 351.621 53.992L360.309 54.328C359.573 58.68 357.877 62.008 355.221 64.312C352.565 66.616 348.997 67.768 344.517 67.768ZM365.17 32.92H389.65V39.736H373.522V46.504H389.074V53.32H373.522V60.184H390.034V67H365.17V32.92ZM395.123 32.92H403.907L416.387 54.28V32.92H424.739V67H415.907L403.475 46.552V67H395.123V32.92ZM441.536 32.92H451.184L463.472 67H454.928L452.672 60.568H440L437.792 67H429.248L441.536 32.92ZM450.464 53.944L446.384 41.944L442.256 53.944H450.464Z" fill="#EF3B2D"/>
</svg>
