<svg width="149" height="149" viewBox="0 0 149 149" fill="none" xmlns="http://www.w3.org/2000/svg">
<g clip-path="url(#clip0_44_899)">
<path d="M0.70108 2.20117C1.52951 2.20117 2.20108 1.5296 2.20108 0.701172C2.20108 -0.127255 1.52951 -0.798828 0.70108 -0.798828C-0.127347 -0.798828 -0.79892 -0.127255 -0.79892 0.701172C-0.79892 1.5296 -0.127347 2.20117 0.70108 2.20117Z" fill="#2ECC71"/>
<path d="M13.1178 2.20117C13.9462 2.20117 14.6178 1.5296 14.6178 0.701172C14.6178 -0.127255 13.9462 -0.798828 13.1178 -0.798828C12.2893 -0.798828 11.6178 -0.127255 11.6178 0.701172C11.6178 1.5296 12.2893 2.20117 13.1178 2.20117Z" fill="#2ECC71"/>
<path d="M25.5344 2.20117C26.3628 2.20117 27.0344 1.5296 27.0344 0.701172C27.0344 -0.127255 26.3628 -0.798828 25.5344 -0.798828C24.706 -0.798828 24.0344 -0.127255 24.0344 0.701172C24.0344 1.5296 24.706 2.20117 25.5344 2.20117Z" fill="#2ECC71"/>
<path d="M37.9511 2.20117C38.7795 2.20117 39.4511 1.5296 39.4511 0.701172C39.4511 -0.127255 38.7795 -0.798828 37.9511 -0.798828C37.1227 -0.798828 36.4511 -0.127255 36.4511 0.701172C36.4511 1.5296 37.1227 2.20117 37.9511 2.20117Z" fill="#2ECC71"/>
<path d="M50.3677 2.20117C51.1962 2.20117 51.8678 1.5296 51.8678 0.701172C51.8678 -0.127255 51.1962 -0.798828 50.3677 -0.798828C49.5393 -0.798828 48.8678 -0.127255 48.8678 0.701172C48.8678 1.5296 49.5393 2.20117 50.3677 2.20117Z" fill="#2ECC71"/>
<path d="M62.7844 2.20117C63.6128 2.20117 64.2844 1.5296 64.2844 0.701172C64.2844 -0.127255 63.6128 -0.798828 62.7844 -0.798828C61.956 -0.798828 61.2844 -0.127255 61.2844 0.701172C61.2844 1.5296 61.956 2.20117 62.7844 2.20117Z" fill="#2ECC71"/>
<path d="M75.2011 2.20117C76.0295 2.20117 76.7011 1.5296 76.7011 0.701172C76.7011 -0.127255 76.0295 -0.798828 75.2011 -0.798828C74.3727 -0.798828 73.7011 -0.127255 73.7011 0.701172C73.7011 1.5296 74.3727 2.20117 75.2011 2.20117Z" fill="#2ECC71"/>
<path d="M87.6177 2.20117C88.4462 2.20117 89.1177 1.5296 89.1177 0.701172C89.1177 -0.127255 88.4462 -0.798828 87.6177 -0.798828C86.7893 -0.798828 86.1177 -0.127255 86.1177 0.701172C86.1177 1.5296 86.7893 2.20117 87.6177 2.20117Z" fill="#2ECC71"/>
<path d="M100.034 2.20117C100.863 2.20117 101.534 1.5296 101.534 0.701172C101.534 -0.127255 100.863 -0.798828 100.034 -0.798828C99.206 -0.798828 98.5344 -0.127255 98.5344 0.701172C98.5344 1.5296 99.206 2.20117 100.034 2.20117Z" fill="#2ECC71"/>
<path d="M112.451 2.20117C113.28 2.20117 113.951 1.5296 113.951 0.701172C113.951 -0.127255 113.28 -0.798828 112.451 -0.798828C111.623 -0.798828 110.951 -0.127255 110.951 0.701172C110.951 1.5296 111.623 2.20117 112.451 2.20117Z" fill="#2ECC71"/>
<path d="M124.868 2.20117C125.696 2.20117 126.368 1.5296 126.368 0.701172C126.368 -0.127255 125.696 -0.798828 124.868 -0.798828C124.039 -0.798828 123.368 -0.127255 123.368 0.701172C123.368 1.5296 124.039 2.20117 124.868 2.20117Z" fill="#2ECC71"/>
<path d="M137.284 2.20117C138.113 2.20117 138.784 1.5296 138.784 0.701172C138.784 -0.127255 138.113 -0.798828 137.284 -0.798828C136.456 -0.798828 135.784 -0.127255 135.784 0.701172C135.784 1.5296 136.456 2.20117 137.284 2.20117Z" fill="#2ECC71"/>
<path d="M149.701 2.20117C150.53 2.20117 151.201 1.5296 151.201 0.701172C151.201 -0.127255 150.53 -0.798828 149.701 -0.798828C148.873 -0.798828 148.201 -0.127255 148.201 0.701172C148.201 1.5296 148.873 2.20117 149.701 2.20117Z" fill="#2ECC71"/>
<path d="M0.70108 14.6179C1.52951 14.6179 2.20108 13.9463 2.20108 13.1179C2.20108 12.2895 1.52951 11.6179 0.70108 11.6179C-0.127347 11.6179 -0.79892 12.2895 -0.79892 13.1179C-0.79892 13.9463 -0.127347 14.6179 0.70108 14.6179Z" fill="#2ECC71"/>
<path d="M13.1178 14.6179C13.9462 14.6179 14.6178 13.9463 14.6178 13.1179C14.6178 12.2895 13.9462 11.6179 13.1178 11.6179C12.2893 11.6179 11.6178 12.2895 11.6178 13.1179C11.6178 13.9463 12.2893 14.6179 13.1178 14.6179Z" fill="#2ECC71"/>
<path d="M25.5344 14.6179C26.3628 14.6179 27.0344 13.9463 27.0344 13.1179C27.0344 12.2895 26.3628 11.6179 25.5344 11.6179C24.706 11.6179 24.0344 12.2895 24.0344 13.1179C24.0344 13.9463 24.706 14.6179 25.5344 14.6179Z" fill="#2ECC71"/>
<path d="M37.9511 14.6179C38.7795 14.6179 39.4511 13.9463 39.4511 13.1179C39.4511 12.2895 38.7795 11.6179 37.9511 11.6179C37.1227 11.6179 36.4511 12.2895 36.4511 13.1179C36.4511 13.9463 37.1227 14.6179 37.9511 14.6179Z" fill="#2ECC71"/>
<path d="M50.3677 14.6179C51.1962 14.6179 51.8678 13.9463 51.8678 13.1179C51.8678 12.2895 51.1962 11.6179 50.3677 11.6179C49.5393 11.6179 48.8678 12.2895 48.8678 13.1179C48.8678 13.9463 49.5393 14.6179 50.3677 14.6179Z" fill="#2ECC71"/>
<path d="M62.7844 14.6179C63.6128 14.6179 64.2844 13.9463 64.2844 13.1179C64.2844 12.2895 63.6128 11.6179 62.7844 11.6179C61.956 11.6179 61.2844 12.2895 61.2844 13.1179C61.2844 13.9463 61.956 14.6179 62.7844 14.6179Z" fill="#2ECC71"/>
<path d="M75.2011 14.6179C76.0295 14.6179 76.7011 13.9463 76.7011 13.1179C76.7011 12.2895 76.0295 11.6179 75.2011 11.6179C74.3727 11.6179 73.7011 12.2895 73.7011 13.1179C73.7011 13.9463 74.3727 14.6179 75.2011 14.6179Z" fill="#2ECC71"/>
<path d="M87.6177 14.6179C88.4462 14.6179 89.1177 13.9463 89.1177 13.1179C89.1177 12.2895 88.4462 11.6179 87.6177 11.6179C86.7893 11.6179 86.1177 12.2895 86.1177 13.1179C86.1177 13.9463 86.7893 14.6179 87.6177 14.6179Z" fill="#2ECC71"/>
<path d="M100.034 14.6179C100.863 14.6179 101.534 13.9463 101.534 13.1179C101.534 12.2895 100.863 11.6179 100.034 11.6179C99.206 11.6179 98.5344 12.2895 98.5344 13.1179C98.5344 13.9463 99.206 14.6179 100.034 14.6179Z" fill="#2ECC71"/>
<path d="M112.451 14.6179C113.28 14.6179 113.951 13.9463 113.951 13.1179C113.951 12.2895 113.28 11.6179 112.451 11.6179C111.623 11.6179 110.951 12.2895 110.951 13.1179C110.951 13.9463 111.623 14.6179 112.451 14.6179Z" fill="#2ECC71"/>
<path d="M124.868 14.6179C125.696 14.6179 126.368 13.9463 126.368 13.1179C126.368 12.2895 125.696 11.6179 124.868 11.6179C124.039 11.6179 123.368 12.2895 123.368 13.1179C123.368 13.9463 124.039 14.6179 124.868 14.6179Z" fill="#2ECC71"/>
<path d="M137.284 14.6179C138.113 14.6179 138.784 13.9463 138.784 13.1179C138.784 12.2895 138.113 11.6179 137.284 11.6179C136.456 11.6179 135.784 12.2895 135.784 13.1179C135.784 13.9463 136.456 14.6179 137.284 14.6179Z" fill="#2ECC71"/>
<path d="M149.701 14.6179C150.53 14.6179 151.201 13.9463 151.201 13.1179C151.201 12.2895 150.53 11.6179 149.701 11.6179C148.873 11.6179 148.201 12.2895 148.201 13.1179C148.201 13.9463 148.873 14.6179 149.701 14.6179Z" fill="#2ECC71"/>
<path d="M0.70108 27.0344C1.52951 27.0344 2.20108 26.3629 2.20108 25.5344C2.20108 24.706 1.52951 24.0344 0.70108 24.0344C-0.127347 24.0344 -0.79892 24.706 -0.79892 25.5344C-0.79892 26.3629 -0.127347 27.0344 0.70108 27.0344Z" fill="#2ECC71"/>
<path d="M13.1178 27.0344C13.9462 27.0344 14.6178 26.3629 14.6178 25.5344C14.6178 24.706 13.9462 24.0344 13.1178 24.0344C12.2893 24.0344 11.6178 24.706 11.6178 25.5344C11.6178 26.3629 12.2893 27.0344 13.1178 27.0344Z" fill="#2ECC71"/>
<path d="M25.5344 27.0344C26.3628 27.0344 27.0344 26.3629 27.0344 25.5344C27.0344 24.706 26.3628 24.0344 25.5344 24.0344C24.706 24.0344 24.0344 24.706 24.0344 25.5344C24.0344 26.3629 24.706 27.0344 25.5344 27.0344Z" fill="#2ECC71"/>
<path d="M37.9511 27.0344C38.7795 27.0344 39.4511 26.3629 39.4511 25.5344C39.4511 24.706 38.7795 24.0344 37.9511 24.0344C37.1227 24.0344 36.4511 24.706 36.4511 25.5344C36.4511 26.3629 37.1227 27.0344 37.9511 27.0344Z" fill="#2ECC71"/>
<path d="M50.3677 27.0344C51.1962 27.0344 51.8678 26.3629 51.8678 25.5344C51.8678 24.706 51.1962 24.0344 50.3677 24.0344C49.5393 24.0344 48.8678 24.706 48.8678 25.5344C48.8678 26.3629 49.5393 27.0344 50.3677 27.0344Z" fill="#2ECC71"/>
<path d="M62.7844 27.0344C63.6128 27.0344 64.2844 26.3629 64.2844 25.5344C64.2844 24.706 63.6128 24.0344 62.7844 24.0344C61.956 24.0344 61.2844 24.706 61.2844 25.5344C61.2844 26.3629 61.956 27.0344 62.7844 27.0344Z" fill="#2ECC71"/>
<path d="M75.2011 27.0344C76.0295 27.0344 76.7011 26.3629 76.7011 25.5344C76.7011 24.706 76.0295 24.0344 75.2011 24.0344C74.3727 24.0344 73.7011 24.706 73.7011 25.5344C73.7011 26.3629 74.3727 27.0344 75.2011 27.0344Z" fill="#2ECC71"/>
<path d="M87.6177 27.0344C88.4462 27.0344 89.1177 26.3629 89.1177 25.5344C89.1177 24.706 88.4462 24.0344 87.6177 24.0344C86.7893 24.0344 86.1177 24.706 86.1177 25.5344C86.1177 26.3629 86.7893 27.0344 87.6177 27.0344Z" fill="#2ECC71"/>
<path d="M100.034 27.0344C100.863 27.0344 101.534 26.3629 101.534 25.5344C101.534 24.706 100.863 24.0344 100.034 24.0344C99.206 24.0344 98.5344 24.706 98.5344 25.5344C98.5344 26.3629 99.206 27.0344 100.034 27.0344Z" fill="#2ECC71"/>
<path d="M112.451 27.0344C113.28 27.0344 113.951 26.3629 113.951 25.5344C113.951 24.706 113.28 24.0344 112.451 24.0344C111.623 24.0344 110.951 24.706 110.951 25.5344C110.951 26.3629 111.623 27.0344 112.451 27.0344Z" fill="#2ECC71"/>
<path d="M124.868 27.0344C125.696 27.0344 126.368 26.3629 126.368 25.5344C126.368 24.706 125.696 24.0344 124.868 24.0344C124.039 24.0344 123.368 24.706 123.368 25.5344C123.368 26.3629 124.039 27.0344 124.868 27.0344Z" fill="#2ECC71"/>
<path d="M137.284 27.0344C138.113 27.0344 138.784 26.3629 138.784 25.5344C138.784 24.706 138.113 24.0344 137.284 24.0344C136.456 24.0344 135.784 24.706 135.784 25.5344C135.784 26.3629 136.456 27.0344 137.284 27.0344Z" fill="#2ECC71"/>
<path d="M149.701 27.0344C150.53 27.0344 151.201 26.3629 151.201 25.5344C151.201 24.706 150.53 24.0344 149.701 24.0344C148.873 24.0344 148.201 24.706 148.201 25.5344C148.201 26.3629 148.873 27.0344 149.701 27.0344Z" fill="#2ECC71"/>
<path d="M0.70108 39.4512C1.52951 39.4512 2.20108 38.7796 2.20108 37.9512C2.20108 37.1227 1.52951 36.4512 0.70108 36.4512C-0.127347 36.4512 -0.79892 37.1227 -0.79892 37.9512C-0.79892 38.7796 -0.127347 39.4512 0.70108 39.4512Z" fill="#2ECC71"/>
<path d="M13.1178 39.4512C13.9462 39.4512 14.6178 38.7796 14.6178 37.9512C14.6178 37.1227 13.9462 36.4512 13.1178 36.4512C12.2893 36.4512 11.6178 37.1227 11.6178 37.9512C11.6178 38.7796 12.2893 39.4512 13.1178 39.4512Z" fill="#2ECC71"/>
<path d="M25.5344 39.4512C26.3628 39.4512 27.0344 38.7796 27.0344 37.9512C27.0344 37.1227 26.3628 36.4512 25.5344 36.4512C24.706 36.4512 24.0344 37.1227 24.0344 37.9512C24.0344 38.7796 24.706 39.4512 25.5344 39.4512Z" fill="#2ECC71"/>
<path d="M37.9511 39.4512C38.7795 39.4512 39.4511 38.7796 39.4511 37.9512C39.4511 37.1227 38.7795 36.4512 37.9511 36.4512C37.1227 36.4512 36.4511 37.1227 36.4511 37.9512C36.4511 38.7796 37.1227 39.4512 37.9511 39.4512Z" fill="#2ECC71"/>
<path d="M50.3677 39.4512C51.1962 39.4512 51.8678 38.7796 51.8678 37.9512C51.8678 37.1227 51.1962 36.4512 50.3677 36.4512C49.5393 36.4512 48.8678 37.1227 48.8678 37.9512C48.8678 38.7796 49.5393 39.4512 50.3677 39.4512Z" fill="#2ECC71"/>
<path d="M62.7844 39.4512C63.6128 39.4512 64.2844 38.7796 64.2844 37.9512C64.2844 37.1227 63.6128 36.4512 62.7844 36.4512C61.956 36.4512 61.2844 37.1227 61.2844 37.9512C61.2844 38.7796 61.956 39.4512 62.7844 39.4512Z" fill="#2ECC71"/>
<path d="M75.2011 39.4512C76.0295 39.4512 76.7011 38.7796 76.7011 37.9512C76.7011 37.1227 76.0295 36.4512 75.2011 36.4512C74.3727 36.4512 73.7011 37.1227 73.7011 37.9512C73.7011 38.7796 74.3727 39.4512 75.2011 39.4512Z" fill="#2ECC71"/>
<path d="M87.6177 39.4512C88.4462 39.4512 89.1177 38.7796 89.1177 37.9512C89.1177 37.1227 88.4462 36.4512 87.6177 36.4512C86.7893 36.4512 86.1177 37.1227 86.1177 37.9512C86.1177 38.7796 86.7893 39.4512 87.6177 39.4512Z" fill="#2ECC71"/>
<path d="M100.034 39.4512C100.863 39.4512 101.534 38.7796 101.534 37.9512C101.534 37.1227 100.863 36.4512 100.034 36.4512C99.206 36.4512 98.5344 37.1227 98.5344 37.9512C98.5344 38.7796 99.206 39.4512 100.034 39.4512Z" fill="#2ECC71"/>
<path d="M112.451 39.4512C113.28 39.4512 113.951 38.7796 113.951 37.9512C113.951 37.1227 113.28 36.4512 112.451 36.4512C111.623 36.4512 110.951 37.1227 110.951 37.9512C110.951 38.7796 111.623 39.4512 112.451 39.4512Z" fill="#2ECC71"/>
<path d="M124.868 39.4512C125.696 39.4512 126.368 38.7796 126.368 37.9512C126.368 37.1227 125.696 36.4512 124.868 36.4512C124.039 36.4512 123.368 37.1227 123.368 37.9512C123.368 38.7796 124.039 39.4512 124.868 39.4512Z" fill="#2ECC71"/>
<path d="M137.284 39.4512C138.113 39.4512 138.784 38.7796 138.784 37.9512C138.784 37.1227 138.113 36.4512 137.284 36.4512C136.456 36.4512 135.784 37.1227 135.784 37.9512C135.784 38.7796 136.456 39.4512 137.284 39.4512Z" fill="#2ECC71"/>
<path d="M149.701 39.4512C150.53 39.4512 151.201 38.7796 151.201 37.9512C151.201 37.1227 150.53 36.4512 149.701 36.4512C148.873 36.4512 148.201 37.1227 148.201 37.9512C148.201 38.7796 148.873 39.4512 149.701 39.4512Z" fill="#2ECC71"/>
<path d="M0.70108 51.8679C1.52951 51.8679 2.20108 51.1963 2.20108 50.3679C2.20108 49.5395 1.52951 48.8679 0.70108 48.8679C-0.127347 48.8679 -0.79892 49.5395 -0.79892 50.3679C-0.79892 51.1963 -0.127347 51.8679 0.70108 51.8679Z" fill="#2ECC71"/>
<path d="M13.1178 51.8679C13.9462 51.8679 14.6178 51.1963 14.6178 50.3679C14.6178 49.5395 13.9462 48.8679 13.1178 48.8679C12.2893 48.8679 11.6178 49.5395 11.6178 50.3679C11.6178 51.1963 12.2893 51.8679 13.1178 51.8679Z" fill="#2ECC71"/>
<path d="M25.5344 51.8679C26.3628 51.8679 27.0344 51.1963 27.0344 50.3679C27.0344 49.5395 26.3628 48.8679 25.5344 48.8679C24.706 48.8679 24.0344 49.5395 24.0344 50.3679C24.0344 51.1963 24.706 51.8679 25.5344 51.8679Z" fill="#2ECC71"/>
<path d="M37.9511 51.8679C38.7795 51.8679 39.4511 51.1963 39.4511 50.3679C39.4511 49.5395 38.7795 48.8679 37.9511 48.8679C37.1227 48.8679 36.4511 49.5395 36.4511 50.3679C36.4511 51.1963 37.1227 51.8679 37.9511 51.8679Z" fill="#2ECC71"/>
<path d="M50.3677 51.8679C51.1962 51.8679 51.8678 51.1963 51.8678 50.3679C51.8678 49.5395 51.1962 48.8679 50.3677 48.8679C49.5393 48.8679 48.8678 49.5395 48.8678 50.3679C48.8678 51.1963 49.5393 51.8679 50.3677 51.8679Z" fill="#2ECC71"/>
<path d="M62.7844 51.8679C63.6128 51.8679 64.2844 51.1963 64.2844 50.3679C64.2844 49.5395 63.6128 48.8679 62.7844 48.8679C61.956 48.8679 61.2844 49.5395 61.2844 50.3679C61.2844 51.1963 61.956 51.8679 62.7844 51.8679Z" fill="#2ECC71"/>
<path d="M75.2011 51.8679C76.0295 51.8679 76.7011 51.1963 76.7011 50.3679C76.7011 49.5395 76.0295 48.8679 75.2011 48.8679C74.3727 48.8679 73.7011 49.5395 73.7011 50.3679C73.7011 51.1963 74.3727 51.8679 75.2011 51.8679Z" fill="#2ECC71"/>
<path d="M87.6177 51.8679C88.4462 51.8679 89.1177 51.1963 89.1177 50.3679C89.1177 49.5395 88.4462 48.8679 87.6177 48.8679C86.7893 48.8679 86.1177 49.5395 86.1177 50.3679C86.1177 51.1963 86.7893 51.8679 87.6177 51.8679Z" fill="#2ECC71"/>
<path d="M100.034 51.8679C100.863 51.8679 101.534 51.1963 101.534 50.3679C101.534 49.5395 100.863 48.8679 100.034 48.8679C99.206 48.8679 98.5344 49.5395 98.5344 50.3679C98.5344 51.1963 99.206 51.8679 100.034 51.8679Z" fill="#2ECC71"/>
<path d="M112.451 51.8679C113.28 51.8679 113.951 51.1963 113.951 50.3679C113.951 49.5395 113.28 48.8679 112.451 48.8679C111.623 48.8679 110.951 49.5395 110.951 50.3679C110.951 51.1963 111.623 51.8679 112.451 51.8679Z" fill="#2ECC71"/>
<path d="M124.868 51.8679C125.696 51.8679 126.368 51.1963 126.368 50.3679C126.368 49.5395 125.696 48.8679 124.868 48.8679C124.039 48.8679 123.368 49.5395 123.368 50.3679C123.368 51.1963 124.039 51.8679 124.868 51.8679Z" fill="#2ECC71"/>
<path d="M137.284 51.8679C138.113 51.8679 138.784 51.1963 138.784 50.3679C138.784 49.5395 138.113 48.8679 137.284 48.8679C136.456 48.8679 135.784 49.5395 135.784 50.3679C135.784 51.1963 136.456 51.8679 137.284 51.8679Z" fill="#2ECC71"/>
<path d="M149.701 51.8679C150.53 51.8679 151.201 51.1963 151.201 50.3679C151.201 49.5395 150.53 48.8679 149.701 48.8679C148.873 48.8679 148.201 49.5395 148.201 50.3679C148.201 51.1963 148.873 51.8679 149.701 51.8679Z" fill="#2ECC71"/>
<path d="M0.70108 64.2844C1.52951 64.2844 2.20108 63.6129 2.20108 62.7844C2.20108 61.956 1.52951 61.2844 0.70108 61.2844C-0.127347 61.2844 -0.79892 61.956 -0.79892 62.7844C-0.79892 63.6129 -0.127347 64.2844 0.70108 64.2844Z" fill="#2ECC71"/>
<path d="M13.1178 64.2844C13.9462 64.2844 14.6178 63.6129 14.6178 62.7844C14.6178 61.956 13.9462 61.2844 13.1178 61.2844C12.2893 61.2844 11.6178 61.956 11.6178 62.7844C11.6178 63.6129 12.2893 64.2844 13.1178 64.2844Z" fill="#2ECC71"/>
<path d="M25.5344 64.2844C26.3628 64.2844 27.0344 63.6129 27.0344 62.7844C27.0344 61.956 26.3628 61.2844 25.5344 61.2844C24.706 61.2844 24.0344 61.956 24.0344 62.7844C24.0344 63.6129 24.706 64.2844 25.5344 64.2844Z" fill="#2ECC71"/>
<path d="M37.9511 64.2844C38.7795 64.2844 39.4511 63.6129 39.4511 62.7844C39.4511 61.956 38.7795 61.2844 37.9511 61.2844C37.1227 61.2844 36.4511 61.956 36.4511 62.7844C36.4511 63.6129 37.1227 64.2844 37.9511 64.2844Z" fill="#2ECC71"/>
<path d="M50.3677 64.2844C51.1962 64.2844 51.8678 63.6129 51.8678 62.7844C51.8678 61.956 51.1962 61.2844 50.3677 61.2844C49.5393 61.2844 48.8678 61.956 48.8678 62.7844C48.8678 63.6129 49.5393 64.2844 50.3677 64.2844Z" fill="#2ECC71"/>
<path d="M62.7844 64.2844C63.6128 64.2844 64.2844 63.6129 64.2844 62.7844C64.2844 61.956 63.6128 61.2844 62.7844 61.2844C61.956 61.2844 61.2844 61.956 61.2844 62.7844C61.2844 63.6129 61.956 64.2844 62.7844 64.2844Z" fill="#2ECC71"/>
<path d="M75.2011 64.2844C76.0295 64.2844 76.7011 63.6129 76.7011 62.7844C76.7011 61.956 76.0295 61.2844 75.2011 61.2844C74.3727 61.2844 73.7011 61.956 73.7011 62.7844C73.7011 63.6129 74.3727 64.2844 75.2011 64.2844Z" fill="#2ECC71"/>
<path d="M87.6177 64.2844C88.4462 64.2844 89.1177 63.6129 89.1177 62.7844C89.1177 61.956 88.4462 61.2844 87.6177 61.2844C86.7893 61.2844 86.1177 61.956 86.1177 62.7844C86.1177 63.6129 86.7893 64.2844 87.6177 64.2844Z" fill="#2ECC71"/>
<path d="M100.034 64.2844C100.863 64.2844 101.534 63.6129 101.534 62.7844C101.534 61.956 100.863 61.2844 100.034 61.2844C99.206 61.2844 98.5344 61.956 98.5344 62.7844C98.5344 63.6129 99.206 64.2844 100.034 64.2844Z" fill="#2ECC71"/>
<path d="M112.451 64.2844C113.28 64.2844 113.951 63.6129 113.951 62.7844C113.951 61.956 113.28 61.2844 112.451 61.2844C111.623 61.2844 110.951 61.956 110.951 62.7844C110.951 63.6129 111.623 64.2844 112.451 64.2844Z" fill="#2ECC71"/>
<path d="M124.868 64.2844C125.696 64.2844 126.368 63.6129 126.368 62.7844C126.368 61.956 125.696 61.2844 124.868 61.2844C124.039 61.2844 123.368 61.956 123.368 62.7844C123.368 63.6129 124.039 64.2844 124.868 64.2844Z" fill="#2ECC71"/>
<path d="M137.284 64.2844C138.113 64.2844 138.784 63.6129 138.784 62.7844C138.784 61.956 138.113 61.2844 137.284 61.2844C136.456 61.2844 135.784 61.956 135.784 62.7844C135.784 63.6129 136.456 64.2844 137.284 64.2844Z" fill="#2ECC71"/>
<path d="M149.701 64.2844C150.53 64.2844 151.201 63.6129 151.201 62.7844C151.201 61.956 150.53 61.2844 149.701 61.2844C148.873 61.2844 148.201 61.956 148.201 62.7844C148.201 63.6129 148.873 64.2844 149.701 64.2844Z" fill="#2ECC71"/>
<path d="M0.70108 76.7012C1.52951 76.7012 2.20108 76.0296 2.20108 75.2012C2.20108 74.3727 1.52951 73.7012 0.70108 73.7012C-0.127347 73.7012 -0.79892 74.3727 -0.79892 75.2012C-0.79892 76.0296 -0.127347 76.7012 0.70108 76.7012Z" fill="#2ECC71"/>
<path d="M13.1178 76.7012C13.9462 76.7012 14.6178 76.0296 14.6178 75.2012C14.6178 74.3727 13.9462 73.7012 13.1178 73.7012C12.2893 73.7012 11.6178 74.3727 11.6178 75.2012C11.6178 76.0296 12.2893 76.7012 13.1178 76.7012Z" fill="#2ECC71"/>
<path d="M25.5344 76.7012C26.3628 76.7012 27.0344 76.0296 27.0344 75.2012C27.0344 74.3727 26.3628 73.7012 25.5344 73.7012C24.706 73.7012 24.0344 74.3727 24.0344 75.2012C24.0344 76.0296 24.706 76.7012 25.5344 76.7012Z" fill="#2ECC71"/>
<path d="M37.9511 76.7012C38.7795 76.7012 39.4511 76.0296 39.4511 75.2012C39.4511 74.3727 38.7795 73.7012 37.9511 73.7012C37.1227 73.7012 36.4511 74.3727 36.4511 75.2012C36.4511 76.0296 37.1227 76.7012 37.9511 76.7012Z" fill="#2ECC71"/>
<path d="M50.3677 76.7012C51.1962 76.7012 51.8678 76.0296 51.8678 75.2012C51.8678 74.3727 51.1962 73.7012 50.3677 73.7012C49.5393 73.7012 48.8678 74.3727 48.8678 75.2012C48.8678 76.0296 49.5393 76.7012 50.3677 76.7012Z" fill="#2ECC71"/>
<path d="M62.7844 76.7012C63.6128 76.7012 64.2844 76.0296 64.2844 75.2012C64.2844 74.3727 63.6128 73.7012 62.7844 73.7012C61.956 73.7012 61.2844 74.3727 61.2844 75.2012C61.2844 76.0296 61.956 76.7012 62.7844 76.7012Z" fill="#2ECC71"/>
<path d="M75.2011 76.7012C76.0295 76.7012 76.7011 76.0296 76.7011 75.2012C76.7011 74.3727 76.0295 73.7012 75.2011 73.7012C74.3727 73.7012 73.7011 74.3727 73.7011 75.2012C73.7011 76.0296 74.3727 76.7012 75.2011 76.7012Z" fill="#2ECC71"/>
<path d="M87.6177 76.7012C88.4462 76.7012 89.1177 76.0296 89.1177 75.2012C89.1177 74.3727 88.4462 73.7012 87.6177 73.7012C86.7893 73.7012 86.1177 74.3727 86.1177 75.2012C86.1177 76.0296 86.7893 76.7012 87.6177 76.7012Z" fill="#2ECC71"/>
<path d="M100.034 76.7012C100.863 76.7012 101.534 76.0296 101.534 75.2012C101.534 74.3727 100.863 73.7012 100.034 73.7012C99.206 73.7012 98.5344 74.3727 98.5344 75.2012C98.5344 76.0296 99.206 76.7012 100.034 76.7012Z" fill="#2ECC71"/>
<path d="M112.451 76.7012C113.28 76.7012 113.951 76.0296 113.951 75.2012C113.951 74.3727 113.28 73.7012 112.451 73.7012C111.623 73.7012 110.951 74.3727 110.951 75.2012C110.951 76.0296 111.623 76.7012 112.451 76.7012Z" fill="#2ECC71"/>
<path d="M124.868 76.7012C125.696 76.7012 126.368 76.0296 126.368 75.2012C126.368 74.3727 125.696 73.7012 124.868 73.7012C124.039 73.7012 123.368 74.3727 123.368 75.2012C123.368 76.0296 124.039 76.7012 124.868 76.7012Z" fill="#2ECC71"/>
<path d="M137.284 76.7012C138.113 76.7012 138.784 76.0296 138.784 75.2012C138.784 74.3727 138.113 73.7012 137.284 73.7012C136.456 73.7012 135.784 74.3727 135.784 75.2012C135.784 76.0296 136.456 76.7012 137.284 76.7012Z" fill="#2ECC71"/>
<path d="M149.701 76.7012C150.53 76.7012 151.201 76.0296 151.201 75.2012C151.201 74.3727 150.53 73.7012 149.701 73.7012C148.873 73.7012 148.201 74.3727 148.201 75.2012C148.201 76.0296 148.873 76.7012 149.701 76.7012Z" fill="#2ECC71"/>
<path d="M0.70108 89.1179C1.52951 89.1179 2.20108 88.4463 2.20108 87.6179C2.20108 86.7895 1.52951 86.1179 0.70108 86.1179C-0.127347 86.1179 -0.79892 86.7895 -0.79892 87.6179C-0.79892 88.4463 -0.127347 89.1179 0.70108 89.1179Z" fill="#2ECC71"/>
<path d="M13.1178 89.1179C13.9462 89.1179 14.6178 88.4463 14.6178 87.6179C14.6178 86.7895 13.9462 86.1179 13.1178 86.1179C12.2893 86.1179 11.6178 86.7895 11.6178 87.6179C11.6178 88.4463 12.2893 89.1179 13.1178 89.1179Z" fill="#2ECC71"/>
<path d="M25.5344 89.1179C26.3628 89.1179 27.0344 88.4463 27.0344 87.6179C27.0344 86.7895 26.3628 86.1179 25.5344 86.1179C24.706 86.1179 24.0344 86.7895 24.0344 87.6179C24.0344 88.4463 24.706 89.1179 25.5344 89.1179Z" fill="#2ECC71"/>
<path d="M37.9511 89.1179C38.7795 89.1179 39.4511 88.4463 39.4511 87.6179C39.4511 86.7895 38.7795 86.1179 37.9511 86.1179C37.1227 86.1179 36.4511 86.7895 36.4511 87.6179C36.4511 88.4463 37.1227 89.1179 37.9511 89.1179Z" fill="#2ECC71"/>
<path d="M50.3677 89.1179C51.1962 89.1179 51.8678 88.4463 51.8678 87.6179C51.8678 86.7895 51.1962 86.1179 50.3677 86.1179C49.5393 86.1179 48.8678 86.7895 48.8678 87.6179C48.8678 88.4463 49.5393 89.1179 50.3677 89.1179Z" fill="#2ECC71"/>
<path d="M62.7844 89.1179C63.6128 89.1179 64.2844 88.4463 64.2844 87.6179C64.2844 86.7895 63.6128 86.1179 62.7844 86.1179C61.956 86.1179 61.2844 86.7895 61.2844 87.6179C61.2844 88.4463 61.956 89.1179 62.7844 89.1179Z" fill="#2ECC71"/>
<path d="M75.2011 89.1179C76.0295 89.1179 76.7011 88.4463 76.7011 87.6179C76.7011 86.7895 76.0295 86.1179 75.2011 86.1179C74.3727 86.1179 73.7011 86.7895 73.7011 87.6179C73.7011 88.4463 74.3727 89.1179 75.2011 89.1179Z" fill="#2ECC71"/>
<path d="M87.6177 89.1179C88.4462 89.1179 89.1177 88.4463 89.1177 87.6179C89.1177 86.7895 88.4462 86.1179 87.6177 86.1179C86.7893 86.1179 86.1177 86.7895 86.1177 87.6179C86.1177 88.4463 86.7893 89.1179 87.6177 89.1179Z" fill="#2ECC71"/>
<path d="M100.034 89.1179C100.863 89.1179 101.534 88.4463 101.534 87.6179C101.534 86.7895 100.863 86.1179 100.034 86.1179C99.206 86.1179 98.5344 86.7895 98.5344 87.6179C98.5344 88.4463 99.206 89.1179 100.034 89.1179Z" fill="#2ECC71"/>
<path d="M112.451 89.1179C113.28 89.1179 113.951 88.4463 113.951 87.6179C113.951 86.7895 113.28 86.1179 112.451 86.1179C111.623 86.1179 110.951 86.7895 110.951 87.6179C110.951 88.4463 111.623 89.1179 112.451 89.1179Z" fill="#2ECC71"/>
<path d="M124.868 89.1179C125.696 89.1179 126.368 88.4463 126.368 87.6179C126.368 86.7895 125.696 86.1179 124.868 86.1179C124.039 86.1179 123.368 86.7895 123.368 87.6179C123.368 88.4463 124.039 89.1179 124.868 89.1179Z" fill="#2ECC71"/>
<path d="M137.284 89.1179C138.113 89.1179 138.784 88.4463 138.784 87.6179C138.784 86.7895 138.113 86.1179 137.284 86.1179C136.456 86.1179 135.784 86.7895 135.784 87.6179C135.784 88.4463 136.456 89.1179 137.284 89.1179Z" fill="#2ECC71"/>
<path d="M149.701 89.1179C150.53 89.1179 151.201 88.4463 151.201 87.6179C151.201 86.7895 150.53 86.1179 149.701 86.1179C148.873 86.1179 148.201 86.7895 148.201 87.6179C148.201 88.4463 148.873 89.1179 149.701 89.1179Z" fill="#2ECC71"/>
<path d="M0.70108 101.534C1.52951 101.534 2.20108 100.863 2.20108 100.034C2.20108 99.206 1.52951 98.5344 0.70108 98.5344C-0.127347 98.5344 -0.79892 99.206 -0.79892 100.034C-0.79892 100.863 -0.127347 101.534 0.70108 101.534Z" fill="#2ECC71"/>
<path d="M13.1178 101.534C13.9462 101.534 14.6178 100.863 14.6178 100.034C14.6178 99.206 13.9462 98.5344 13.1178 98.5344C12.2893 98.5344 11.6178 99.206 11.6178 100.034C11.6178 100.863 12.2893 101.534 13.1178 101.534Z" fill="#2ECC71"/>
<path d="M25.5344 101.534C26.3628 101.534 27.0344 100.863 27.0344 100.034C27.0344 99.206 26.3628 98.5344 25.5344 98.5344C24.706 98.5344 24.0344 99.206 24.0344 100.034C24.0344 100.863 24.706 101.534 25.5344 101.534Z" fill="#2ECC71"/>
<path d="M37.9511 101.534C38.7795 101.534 39.4511 100.863 39.4511 100.034C39.4511 99.206 38.7795 98.5344 37.9511 98.5344C37.1227 98.5344 36.4511 99.206 36.4511 100.034C36.4511 100.863 37.1227 101.534 37.9511 101.534Z" fill="#2ECC71"/>
<path d="M50.3677 101.534C51.1962 101.534 51.8678 100.863 51.8678 100.034C51.8678 99.206 51.1962 98.5344 50.3677 98.5344C49.5393 98.5344 48.8678 99.206 48.8678 100.034C48.8678 100.863 49.5393 101.534 50.3677 101.534Z" fill="#2ECC71"/>
<path d="M62.7844 101.534C63.6128 101.534 64.2844 100.863 64.2844 100.034C64.2844 99.206 63.6128 98.5344 62.7844 98.5344C61.956 98.5344 61.2844 99.206 61.2844 100.034C61.2844 100.863 61.956 101.534 62.7844 101.534Z" fill="#2ECC71"/>
<path d="M75.2011 101.534C76.0295 101.534 76.7011 100.863 76.7011 100.034C76.7011 99.206 76.0295 98.5344 75.2011 98.5344C74.3727 98.5344 73.7011 99.206 73.7011 100.034C73.7011 100.863 74.3727 101.534 75.2011 101.534Z" fill="#2ECC71"/>
<path d="M87.6177 101.534C88.4462 101.534 89.1177 100.863 89.1177 100.034C89.1177 99.206 88.4462 98.5344 87.6177 98.5344C86.7893 98.5344 86.1177 99.206 86.1177 100.034C86.1177 100.863 86.7893 101.534 87.6177 101.534Z" fill="#2ECC71"/>
<path d="M100.034 101.534C100.863 101.534 101.534 100.863 101.534 100.034C101.534 99.206 100.863 98.5344 100.034 98.5344C99.206 98.5344 98.5344 99.206 98.5344 100.034C98.5344 100.863 99.206 101.534 100.034 101.534Z" fill="#2ECC71"/>
<path d="M112.451 101.534C113.28 101.534 113.951 100.863 113.951 100.034C113.951 99.206 113.28 98.5344 112.451 98.5344C111.623 98.5344 110.951 99.206 110.951 100.034C110.951 100.863 111.623 101.534 112.451 101.534Z" fill="#2ECC71"/>
<path d="M124.868 101.534C125.696 101.534 126.368 100.863 126.368 100.034C126.368 99.206 125.696 98.5344 124.868 98.5344C124.039 98.5344 123.368 99.206 123.368 100.034C123.368 100.863 124.039 101.534 124.868 101.534Z" fill="#2ECC71"/>
<path d="M137.284 101.534C138.113 101.534 138.784 100.863 138.784 100.034C138.784 99.206 138.113 98.5344 137.284 98.5344C136.456 98.5344 135.784 99.206 135.784 100.034C135.784 100.863 136.456 101.534 137.284 101.534Z" fill="#2ECC71"/>
<path d="M149.701 101.534C150.53 101.534 151.201 100.863 151.201 100.034C151.201 99.206 150.53 98.5344 149.701 98.5344C148.873 98.5344 148.201 99.206 148.201 100.034C148.201 100.863 148.873 101.534 149.701 101.534Z" fill="#2ECC71"/>
<path d="M0.70108 113.951C1.52951 113.951 2.20108 113.28 2.20108 112.451C2.20108 111.623 1.52951 110.951 0.70108 110.951C-0.127347 110.951 -0.79892 111.623 -0.79892 112.451C-0.79892 113.28 -0.127347 113.951 0.70108 113.951Z" fill="#2ECC71"/>
<path d="M13.1178 113.951C13.9462 113.951 14.6178 113.28 14.6178 112.451C14.6178 111.623 13.9462 110.951 13.1178 110.951C12.2893 110.951 11.6178 111.623 11.6178 112.451C11.6178 113.28 12.2893 113.951 13.1178 113.951Z" fill="#2ECC71"/>
<path d="M25.5344 113.951C26.3628 113.951 27.0344 113.28 27.0344 112.451C27.0344 111.623 26.3628 110.951 25.5344 110.951C24.706 110.951 24.0344 111.623 24.0344 112.451C24.0344 113.28 24.706 113.951 25.5344 113.951Z" fill="#2ECC71"/>
<path d="M37.9511 113.951C38.7795 113.951 39.4511 113.28 39.4511 112.451C39.4511 111.623 38.7795 110.951 37.9511 110.951C37.1227 110.951 36.4511 111.623 36.4511 112.451C36.4511 113.28 37.1227 113.951 37.9511 113.951Z" fill="#2ECC71"/>
<path d="M50.3677 113.951C51.1962 113.951 51.8678 113.28 51.8678 112.451C51.8678 111.623 51.1962 110.951 50.3677 110.951C49.5393 110.951 48.8678 111.623 48.8678 112.451C48.8678 113.28 49.5393 113.951 50.3677 113.951Z" fill="#2ECC71"/>
<path d="M62.7844 113.951C63.6128 113.951 64.2844 113.28 64.2844 112.451C64.2844 111.623 63.6128 110.951 62.7844 110.951C61.956 110.951 61.2844 111.623 61.2844 112.451C61.2844 113.28 61.956 113.951 62.7844 113.951Z" fill="#2ECC71"/>
<path d="M75.2011 113.951C76.0295 113.951 76.7011 113.28 76.7011 112.451C76.7011 111.623 76.0295 110.951 75.2011 110.951C74.3727 110.951 73.7011 111.623 73.7011 112.451C73.7011 113.28 74.3727 113.951 75.2011 113.951Z" fill="#2ECC71"/>
<path d="M87.6177 113.951C88.4462 113.951 89.1177 113.28 89.1177 112.451C89.1177 111.623 88.4462 110.951 87.6177 110.951C86.7893 110.951 86.1177 111.623 86.1177 112.451C86.1177 113.28 86.7893 113.951 87.6177 113.951Z" fill="#2ECC71"/>
<path d="M100.034 113.951C100.863 113.951 101.534 113.28 101.534 112.451C101.534 111.623 100.863 110.951 100.034 110.951C99.206 110.951 98.5344 111.623 98.5344 112.451C98.5344 113.28 99.206 113.951 100.034 113.951Z" fill="#2ECC71"/>
<path d="M112.451 113.951C113.28 113.951 113.951 113.28 113.951 112.451C113.951 111.623 113.28 110.951 112.451 110.951C111.623 110.951 110.951 111.623 110.951 112.451C110.951 113.28 111.623 113.951 112.451 113.951Z" fill="#2ECC71"/>
<path d="M124.868 113.951C125.696 113.951 126.368 113.28 126.368 112.451C126.368 111.623 125.696 110.951 124.868 110.951C124.039 110.951 123.368 111.623 123.368 112.451C123.368 113.28 124.039 113.951 124.868 113.951Z" fill="#2ECC71"/>
<path d="M137.284 113.951C138.113 113.951 138.784 113.28 138.784 112.451C138.784 111.623 138.113 110.951 137.284 110.951C136.456 110.951 135.784 111.623 135.784 112.451C135.784 113.28 136.456 113.951 137.284 113.951Z" fill="#2ECC71"/>
<path d="M149.701 113.951C150.53 113.951 151.201 113.28 151.201 112.451C151.201 111.623 150.53 110.951 149.701 110.951C148.873 110.951 148.201 111.623 148.201 112.451C148.201 113.28 148.873 113.951 149.701 113.951Z" fill="#2ECC71"/>
<path d="M0.70108 126.368C1.52951 126.368 2.20108 125.696 2.20108 124.868C2.20108 124.04 1.52951 123.368 0.70108 123.368C-0.127347 123.368 -0.79892 124.04 -0.79892 124.868C-0.79892 125.696 -0.127347 126.368 0.70108 126.368Z" fill="#2ECC71"/>
<path d="M13.1178 126.368C13.9462 126.368 14.6178 125.696 14.6178 124.868C14.6178 124.04 13.9462 123.368 13.1178 123.368C12.2893 123.368 11.6178 124.04 11.6178 124.868C11.6178 125.696 12.2893 126.368 13.1178 126.368Z" fill="#2ECC71"/>
<path d="M25.5344 126.368C26.3628 126.368 27.0344 125.696 27.0344 124.868C27.0344 124.04 26.3628 123.368 25.5344 123.368C24.706 123.368 24.0344 124.04 24.0344 124.868C24.0344 125.696 24.706 126.368 25.5344 126.368Z" fill="#2ECC71"/>
<path d="M37.9511 126.368C38.7795 126.368 39.4511 125.696 39.4511 124.868C39.4511 124.04 38.7795 123.368 37.9511 123.368C37.1227 123.368 36.4511 124.04 36.4511 124.868C36.4511 125.696 37.1227 126.368 37.9511 126.368Z" fill="#2ECC71"/>
<path d="M50.3677 126.368C51.1962 126.368 51.8678 125.696 51.8678 124.868C51.8678 124.04 51.1962 123.368 50.3677 123.368C49.5393 123.368 48.8678 124.04 48.8678 124.868C48.8678 125.696 49.5393 126.368 50.3677 126.368Z" fill="#2ECC71"/>
<path d="M62.7844 126.368C63.6128 126.368 64.2844 125.696 64.2844 124.868C64.2844 124.04 63.6128 123.368 62.7844 123.368C61.956 123.368 61.2844 124.04 61.2844 124.868C61.2844 125.696 61.956 126.368 62.7844 126.368Z" fill="#2ECC71"/>
<path d="M75.2011 126.368C76.0295 126.368 76.7011 125.696 76.7011 124.868C76.7011 124.04 76.0295 123.368 75.2011 123.368C74.3727 123.368 73.7011 124.04 73.7011 124.868C73.7011 125.696 74.3727 126.368 75.2011 126.368Z" fill="#2ECC71"/>
<path d="M87.6177 126.368C88.4462 126.368 89.1177 125.696 89.1177 124.868C89.1177 124.04 88.4462 123.368 87.6177 123.368C86.7893 123.368 86.1177 124.04 86.1177 124.868C86.1177 125.696 86.7893 126.368 87.6177 126.368Z" fill="#2ECC71"/>
<path d="M100.034 126.368C100.863 126.368 101.534 125.696 101.534 124.868C101.534 124.04 100.863 123.368 100.034 123.368C99.206 123.368 98.5344 124.04 98.5344 124.868C98.5344 125.696 99.206 126.368 100.034 126.368Z" fill="#2ECC71"/>
<path d="M112.451 126.368C113.28 126.368 113.951 125.696 113.951 124.868C113.951 124.04 113.28 123.368 112.451 123.368C111.623 123.368 110.951 124.04 110.951 124.868C110.951 125.696 111.623 126.368 112.451 126.368Z" fill="#2ECC71"/>
<path d="M124.868 126.368C125.696 126.368 126.368 125.696 126.368 124.868C126.368 124.04 125.696 123.368 124.868 123.368C124.039 123.368 123.368 124.04 123.368 124.868C123.368 125.696 124.039 126.368 124.868 126.368Z" fill="#2ECC71"/>
<path d="M137.284 126.368C138.113 126.368 138.784 125.696 138.784 124.868C138.784 124.04 138.113 123.368 137.284 123.368C136.456 123.368 135.784 124.04 135.784 124.868C135.784 125.696 136.456 126.368 137.284 126.368Z" fill="#2ECC71"/>
<path d="M149.701 126.368C150.53 126.368 151.201 125.696 151.201 124.868C151.201 124.04 150.53 123.368 149.701 123.368C148.873 123.368 148.201 124.04 148.201 124.868C148.201 125.696 148.873 126.368 149.701 126.368Z" fill="#2ECC71"/>
<path d="M0.70108 138.784C1.52951 138.784 2.20108 138.113 2.20108 137.284C2.20108 136.456 1.52951 135.784 0.70108 135.784C-0.127347 135.784 -0.79892 136.456 -0.79892 137.284C-0.79892 138.113 -0.127347 138.784 0.70108 138.784Z" fill="#2ECC71"/>
<path d="M13.1178 138.784C13.9462 138.784 14.6178 138.113 14.6178 137.284C14.6178 136.456 13.9462 135.784 13.1178 135.784C12.2893 135.784 11.6178 136.456 11.6178 137.284C11.6178 138.113 12.2893 138.784 13.1178 138.784Z" fill="#2ECC71"/>
<path d="M25.5344 138.784C26.3628 138.784 27.0344 138.113 27.0344 137.284C27.0344 136.456 26.3628 135.784 25.5344 135.784C24.706 135.784 24.0344 136.456 24.0344 137.284C24.0344 138.113 24.706 138.784 25.5344 138.784Z" fill="#2ECC71"/>
<path d="M37.9511 138.784C38.7795 138.784 39.4511 138.113 39.4511 137.284C39.4511 136.456 38.7795 135.784 37.9511 135.784C37.1227 135.784 36.4511 136.456 36.4511 137.284C36.4511 138.113 37.1227 138.784 37.9511 138.784Z" fill="#2ECC71"/>
<path d="M50.3677 138.784C51.1962 138.784 51.8678 138.113 51.8678 137.284C51.8678 136.456 51.1962 135.784 50.3677 135.784C49.5393 135.784 48.8678 136.456 48.8678 137.284C48.8678 138.113 49.5393 138.784 50.3677 138.784Z" fill="#2ECC71"/>
<path d="M62.7844 138.784C63.6128 138.784 64.2844 138.113 64.2844 137.284C64.2844 136.456 63.6128 135.784 62.7844 135.784C61.956 135.784 61.2844 136.456 61.2844 137.284C61.2844 138.113 61.956 138.784 62.7844 138.784Z" fill="#2ECC71"/>
<path d="M75.2011 138.784C76.0295 138.784 76.7011 138.113 76.7011 137.284C76.7011 136.456 76.0295 135.784 75.2011 135.784C74.3727 135.784 73.7011 136.456 73.7011 137.284C73.7011 138.113 74.3727 138.784 75.2011 138.784Z" fill="#2ECC71"/>
<path d="M87.6177 138.784C88.4462 138.784 89.1177 138.113 89.1177 137.284C89.1177 136.456 88.4462 135.784 87.6177 135.784C86.7893 135.784 86.1177 136.456 86.1177 137.284C86.1177 138.113 86.7893 138.784 87.6177 138.784Z" fill="#2ECC71"/>
<path d="M100.034 138.784C100.863 138.784 101.534 138.113 101.534 137.284C101.534 136.456 100.863 135.784 100.034 135.784C99.206 135.784 98.5344 136.456 98.5344 137.284C98.5344 138.113 99.206 138.784 100.034 138.784Z" fill="#2ECC71"/>
<path d="M112.451 138.784C113.28 138.784 113.951 138.113 113.951 137.284C113.951 136.456 113.28 135.784 112.451 135.784C111.623 135.784 110.951 136.456 110.951 137.284C110.951 138.113 111.623 138.784 112.451 138.784Z" fill="#2ECC71"/>
<path d="M124.868 138.784C125.696 138.784 126.368 138.113 126.368 137.284C126.368 136.456 125.696 135.784 124.868 135.784C124.039 135.784 123.368 136.456 123.368 137.284C123.368 138.113 124.039 138.784 124.868 138.784Z" fill="#2ECC71"/>
<path d="M137.284 138.784C138.113 138.784 138.784 138.113 138.784 137.284C138.784 136.456 138.113 135.784 137.284 135.784C136.456 135.784 135.784 136.456 135.784 137.284C135.784 138.113 136.456 138.784 137.284 138.784Z" fill="#2ECC71"/>
<path d="M149.701 138.784C150.53 138.784 151.201 138.113 151.201 137.284C151.201 136.456 150.53 135.784 149.701 135.784C148.873 135.784 148.201 136.456 148.201 137.284C148.201 138.113 148.873 138.784 149.701 138.784Z" fill="#2ECC71"/>
<path d="M0.70108 151.201C1.52951 151.201 2.20108 150.53 2.20108 149.701C2.20108 148.873 1.52951 148.201 0.70108 148.201C-0.127347 148.201 -0.79892 148.873 -0.79892 149.701C-0.79892 150.53 -0.127347 151.201 0.70108 151.201Z" fill="#2ECC71"/>
<path d="M13.1178 151.201C13.9462 151.201 14.6178 150.53 14.6178 149.701C14.6178 148.873 13.9462 148.201 13.1178 148.201C12.2893 148.201 11.6178 148.873 11.6178 149.701C11.6178 150.53 12.2893 151.201 13.1178 151.201Z" fill="#2ECC71"/>
<path d="M25.5344 151.201C26.3628 151.201 27.0344 150.53 27.0344 149.701C27.0344 148.873 26.3628 148.201 25.5344 148.201C24.706 148.201 24.0344 148.873 24.0344 149.701C24.0344 150.53 24.706 151.201 25.5344 151.201Z" fill="#2ECC71"/>
<path d="M37.9511 151.201C38.7795 151.201 39.4511 150.53 39.4511 149.701C39.4511 148.873 38.7795 148.201 37.9511 148.201C37.1227 148.201 36.4511 148.873 36.4511 149.701C36.4511 150.53 37.1227 151.201 37.9511 151.201Z" fill="#2ECC71"/>
<path d="M50.3677 151.201C51.1962 151.201 51.8678 150.53 51.8678 149.701C51.8678 148.873 51.1962 148.201 50.3677 148.201C49.5393 148.201 48.8678 148.873 48.8678 149.701C48.8678 150.53 49.5393 151.201 50.3677 151.201Z" fill="#2ECC71"/>
<path d="M62.7844 151.201C63.6128 151.201 64.2844 150.53 64.2844 149.701C64.2844 148.873 63.6128 148.201 62.7844 148.201C61.956 148.201 61.2844 148.873 61.2844 149.701C61.2844 150.53 61.956 151.201 62.7844 151.201Z" fill="#2ECC71"/>
<path d="M75.2011 151.201C76.0295 151.201 76.7011 150.53 76.7011 149.701C76.7011 148.873 76.0295 148.201 75.2011 148.201C74.3727 148.201 73.7011 148.873 73.7011 149.701C73.7011 150.53 74.3727 151.201 75.2011 151.201Z" fill="#2ECC71"/>
<path d="M87.6177 151.201C88.4462 151.201 89.1177 150.53 89.1177 149.701C89.1177 148.873 88.4462 148.201 87.6177 148.201C86.7893 148.201 86.1177 148.873 86.1177 149.701C86.1177 150.53 86.7893 151.201 87.6177 151.201Z" fill="#2ECC71"/>
<path d="M100.034 151.201C100.863 151.201 101.534 150.53 101.534 149.701C101.534 148.873 100.863 148.201 100.034 148.201C99.206 148.201 98.5344 148.873 98.5344 149.701C98.5344 150.53 99.206 151.201 100.034 151.201Z" fill="#2ECC71"/>
<path d="M112.451 151.201C113.28 151.201 113.951 150.53 113.951 149.701C113.951 148.873 113.28 148.201 112.451 148.201C111.623 148.201 110.951 148.873 110.951 149.701C110.951 150.53 111.623 151.201 112.451 151.201Z" fill="#2ECC71"/>
<path d="M124.868 151.201C125.696 151.201 126.368 150.53 126.368 149.701C126.368 148.873 125.696 148.201 124.868 148.201C124.039 148.201 123.368 148.873 123.368 149.701C123.368 150.53 124.039 151.201 124.868 151.201Z" fill="#2ECC71"/>
<path d="M137.284 151.201C138.113 151.201 138.784 150.53 138.784 149.701C138.784 148.873 138.113 148.201 137.284 148.201C136.456 148.201 135.784 148.873 135.784 149.701C135.784 150.53 136.456 151.201 137.284 151.201Z" fill="#2ECC71"/>
<path d="M149.701 151.201C150.53 151.201 151.201 150.53 151.201 149.701C151.201 148.873 150.53 148.201 149.701 148.201C148.873 148.201 148.201 148.873 148.201 149.701C148.201 150.53 148.873 151.201 149.701 151.201Z" fill="#2ECC71"/>
</g>
<defs>
<clipPath id="clip0_44_899">
<rect width="149" height="149" fill="white"/>
</clipPath>
</defs>
</svg>
