<svg width="149" height="149" viewBox="0 0 149 149" fill="none" xmlns="http://www.w3.org/2000/svg">
<g clip-path="url(#clip0_44_728)">
<path d="M0.20108 1.20117C0.753365 1.20117 1.20108 0.753457 1.20108 0.201172C1.20108 -0.351113 0.753365 -0.798828 0.20108 -0.798828C-0.351204 -0.798828 -0.79892 -0.351113 -0.79892 0.201172C-0.79892 0.753457 -0.351204 1.20117 0.20108 1.20117Z" fill="#4F279B"/>
<path d="M12.6177 1.20117C13.17 1.20117 13.6177 0.753457 13.6177 0.201172C13.6177 -0.351113 13.17 -0.798828 12.6177 -0.798828C12.0655 -0.798828 11.6177 -0.351113 11.6177 0.201172C11.6177 0.753457 12.0655 1.20117 12.6177 1.20117Z" fill="#4F279B"/>
<path d="M25.0344 1.20117C25.5867 1.20117 26.0344 0.753457 26.0344 0.201172C26.0344 -0.351113 25.5867 -0.798828 25.0344 -0.798828C24.4821 -0.798828 24.0344 -0.351113 24.0344 0.201172C24.0344 0.753457 24.4821 1.20117 25.0344 1.20117Z" fill="#4F279B"/>
<path d="M37.4511 1.20117C38.0034 1.20117 38.4511 0.753457 38.4511 0.201172C38.4511 -0.351113 38.0034 -0.798828 37.4511 -0.798828C36.8988 -0.798828 36.4511 -0.351113 36.4511 0.201172C36.4511 0.753457 36.8988 1.20117 37.4511 1.20117Z" fill="#4F279B"/>
<path d="M49.8677 1.20117C50.42 1.20117 50.8677 0.753457 50.8677 0.201172C50.8677 -0.351113 50.42 -0.798828 49.8677 -0.798828C49.3154 -0.798828 48.8677 -0.351113 48.8677 0.201172C48.8677 0.753457 49.3154 1.20117 49.8677 1.20117Z" fill="#4F279B"/>
<path d="M62.2844 1.20117C62.8367 1.20117 63.2844 0.753457 63.2844 0.201172C63.2844 -0.351113 62.8367 -0.798828 62.2844 -0.798828C61.7321 -0.798828 61.2844 -0.351113 61.2844 0.201172C61.2844 0.753457 61.7321 1.20117 62.2844 1.20117Z" fill="#4F279B"/>
<path d="M74.7011 1.20117C75.2534 1.20117 75.7011 0.753457 75.7011 0.201172C75.7011 -0.351113 75.2534 -0.798828 74.7011 -0.798828C74.1488 -0.798828 73.7011 -0.351113 73.7011 0.201172C73.7011 0.753457 74.1488 1.20117 74.7011 1.20117Z" fill="#4F279B"/>
<path d="M87.1177 1.20117C87.67 1.20117 88.1177 0.753457 88.1177 0.201172C88.1177 -0.351113 87.67 -0.798828 87.1177 -0.798828C86.5654 -0.798828 86.1177 -0.351113 86.1177 0.201172C86.1177 0.753457 86.5654 1.20117 87.1177 1.20117Z" fill="#4F279B"/>
<path d="M99.5344 1.20117C100.087 1.20117 100.534 0.753457 100.534 0.201172C100.534 -0.351113 100.087 -0.798828 99.5344 -0.798828C98.9821 -0.798828 98.5344 -0.351113 98.5344 0.201172C98.5344 0.753457 98.9821 1.20117 99.5344 1.20117Z" fill="#4F279B"/>
<path d="M111.951 1.20117C112.503 1.20117 112.951 0.753457 112.951 0.201172C112.951 -0.351113 112.503 -0.798828 111.951 -0.798828C111.399 -0.798828 110.951 -0.351113 110.951 0.201172C110.951 0.753457 111.399 1.20117 111.951 1.20117Z" fill="#4F279B"/>
<path d="M124.368 1.20117C124.92 1.20117 125.368 0.753457 125.368 0.201172C125.368 -0.351113 124.92 -0.798828 124.368 -0.798828C123.815 -0.798828 123.368 -0.351113 123.368 0.201172C123.368 0.753457 123.815 1.20117 124.368 1.20117Z" fill="#4F279B"/>
<path d="M136.784 1.20117C137.337 1.20117 137.784 0.753457 137.784 0.201172C137.784 -0.351113 137.337 -0.798828 136.784 -0.798828C136.232 -0.798828 135.784 -0.351113 135.784 0.201172C135.784 0.753457 136.232 1.20117 136.784 1.20117Z" fill="#4F279B"/>
<path d="M149.201 1.20117C149.753 1.20117 150.201 0.753457 150.201 0.201172C150.201 -0.351113 149.753 -0.798828 149.201 -0.798828C148.649 -0.798828 148.201 -0.351113 148.201 0.201172C148.201 0.753457 148.649 1.20117 149.201 1.20117Z" fill="#4F279B"/>
<path d="M0.20108 13.6179C0.753365 13.6179 1.20108 13.1702 1.20108 12.6179C1.20108 12.0656 0.753365 11.6179 0.20108 11.6179C-0.351204 11.6179 -0.79892 12.0656 -0.79892 12.6179C-0.79892 13.1702 -0.351204 13.6179 0.20108 13.6179Z" fill="#4F279B"/>
<path d="M12.6177 13.6179C13.17 13.6179 13.6177 13.1702 13.6177 12.6179C13.6177 12.0656 13.17 11.6179 12.6177 11.6179C12.0655 11.6179 11.6177 12.0656 11.6177 12.6179C11.6177 13.1702 12.0655 13.6179 12.6177 13.6179Z" fill="#4F279B"/>
<path d="M25.0344 13.6179C25.5867 13.6179 26.0344 13.1702 26.0344 12.6179C26.0344 12.0656 25.5867 11.6179 25.0344 11.6179C24.4821 11.6179 24.0344 12.0656 24.0344 12.6179C24.0344 13.1702 24.4821 13.6179 25.0344 13.6179Z" fill="#4F279B"/>
<path d="M37.4511 13.6179C38.0034 13.6179 38.4511 13.1702 38.4511 12.6179C38.4511 12.0656 38.0034 11.6179 37.4511 11.6179C36.8988 11.6179 36.4511 12.0656 36.4511 12.6179C36.4511 13.1702 36.8988 13.6179 37.4511 13.6179Z" fill="#4F279B"/>
<path d="M49.8677 13.6179C50.42 13.6179 50.8677 13.1702 50.8677 12.6179C50.8677 12.0656 50.42 11.6179 49.8677 11.6179C49.3154 11.6179 48.8677 12.0656 48.8677 12.6179C48.8677 13.1702 49.3154 13.6179 49.8677 13.6179Z" fill="#4F279B"/>
<path d="M62.2844 13.6179C62.8367 13.6179 63.2844 13.1702 63.2844 12.6179C63.2844 12.0656 62.8367 11.6179 62.2844 11.6179C61.7321 11.6179 61.2844 12.0656 61.2844 12.6179C61.2844 13.1702 61.7321 13.6179 62.2844 13.6179Z" fill="#4F279B"/>
<path d="M74.7011 13.6179C75.2534 13.6179 75.7011 13.1702 75.7011 12.6179C75.7011 12.0656 75.2534 11.6179 74.7011 11.6179C74.1488 11.6179 73.7011 12.0656 73.7011 12.6179C73.7011 13.1702 74.1488 13.6179 74.7011 13.6179Z" fill="#4F279B"/>
<path d="M87.1177 13.6179C87.67 13.6179 88.1177 13.1702 88.1177 12.6179C88.1177 12.0656 87.67 11.6179 87.1177 11.6179C86.5654 11.6179 86.1177 12.0656 86.1177 12.6179C86.1177 13.1702 86.5654 13.6179 87.1177 13.6179Z" fill="#4F279B"/>
<path d="M99.5344 13.6179C100.087 13.6179 100.534 13.1702 100.534 12.6179C100.534 12.0656 100.087 11.6179 99.5344 11.6179C98.9821 11.6179 98.5344 12.0656 98.5344 12.6179C98.5344 13.1702 98.9821 13.6179 99.5344 13.6179Z" fill="#4F279B"/>
<path d="M111.951 13.6179C112.503 13.6179 112.951 13.1702 112.951 12.6179C112.951 12.0656 112.503 11.6179 111.951 11.6179C111.399 11.6179 110.951 12.0656 110.951 12.6179C110.951 13.1702 111.399 13.6179 111.951 13.6179Z" fill="#4F279B"/>
<path d="M124.368 13.6179C124.92 13.6179 125.368 13.1702 125.368 12.6179C125.368 12.0656 124.92 11.6179 124.368 11.6179C123.815 11.6179 123.368 12.0656 123.368 12.6179C123.368 13.1702 123.815 13.6179 124.368 13.6179Z" fill="#4F279B"/>
<path d="M136.784 13.6179C137.337 13.6179 137.784 13.1702 137.784 12.6179C137.784 12.0656 137.337 11.6179 136.784 11.6179C136.232 11.6179 135.784 12.0656 135.784 12.6179C135.784 13.1702 136.232 13.6179 136.784 13.6179Z" fill="#4F279B"/>
<path d="M149.201 13.6179C149.753 13.6179 150.201 13.1702 150.201 12.6179C150.201 12.0656 149.753 11.6179 149.201 11.6179C148.649 11.6179 148.201 12.0656 148.201 12.6179C148.201 13.1702 148.649 13.6179 149.201 13.6179Z" fill="#4F279B"/>
<path d="M0.20108 26.0344C0.753365 26.0344 1.20108 25.5867 1.20108 25.0344C1.20108 24.4821 0.753365 24.0344 0.20108 24.0344C-0.351204 24.0344 -0.79892 24.4821 -0.79892 25.0344C-0.79892 25.5867 -0.351204 26.0344 0.20108 26.0344Z" fill="#4F279B"/>
<path d="M12.6177 26.0344C13.17 26.0344 13.6177 25.5867 13.6177 25.0344C13.6177 24.4821 13.17 24.0344 12.6177 24.0344C12.0655 24.0344 11.6177 24.4821 11.6177 25.0344C11.6177 25.5867 12.0655 26.0344 12.6177 26.0344Z" fill="#4F279B"/>
<path d="M25.0344 26.0344C25.5867 26.0344 26.0344 25.5867 26.0344 25.0344C26.0344 24.4821 25.5867 24.0344 25.0344 24.0344C24.4821 24.0344 24.0344 24.4821 24.0344 25.0344C24.0344 25.5867 24.4821 26.0344 25.0344 26.0344Z" fill="#4F279B"/>
<path d="M37.4511 26.0344C38.0034 26.0344 38.4511 25.5867 38.4511 25.0344C38.4511 24.4821 38.0034 24.0344 37.4511 24.0344C36.8988 24.0344 36.4511 24.4821 36.4511 25.0344C36.4511 25.5867 36.8988 26.0344 37.4511 26.0344Z" fill="#4F279B"/>
<path d="M49.8677 26.0344C50.42 26.0344 50.8677 25.5867 50.8677 25.0344C50.8677 24.4821 50.42 24.0344 49.8677 24.0344C49.3154 24.0344 48.8677 24.4821 48.8677 25.0344C48.8677 25.5867 49.3154 26.0344 49.8677 26.0344Z" fill="#4F279B"/>
<path d="M62.2844 26.0344C62.8367 26.0344 63.2844 25.5867 63.2844 25.0344C63.2844 24.4821 62.8367 24.0344 62.2844 24.0344C61.7321 24.0344 61.2844 24.4821 61.2844 25.0344C61.2844 25.5867 61.7321 26.0344 62.2844 26.0344Z" fill="#4F279B"/>
<path d="M74.7011 26.0344C75.2534 26.0344 75.7011 25.5867 75.7011 25.0344C75.7011 24.4821 75.2534 24.0344 74.7011 24.0344C74.1488 24.0344 73.7011 24.4821 73.7011 25.0344C73.7011 25.5867 74.1488 26.0344 74.7011 26.0344Z" fill="#4F279B"/>
<path d="M87.1177 26.0344C87.67 26.0344 88.1177 25.5867 88.1177 25.0344C88.1177 24.4821 87.67 24.0344 87.1177 24.0344C86.5654 24.0344 86.1177 24.4821 86.1177 25.0344C86.1177 25.5867 86.5654 26.0344 87.1177 26.0344Z" fill="#4F279B"/>
<path d="M99.5344 26.0344C100.087 26.0344 100.534 25.5867 100.534 25.0344C100.534 24.4821 100.087 24.0344 99.5344 24.0344C98.9821 24.0344 98.5344 24.4821 98.5344 25.0344C98.5344 25.5867 98.9821 26.0344 99.5344 26.0344Z" fill="#4F279B"/>
<path d="M111.951 26.0344C112.503 26.0344 112.951 25.5867 112.951 25.0344C112.951 24.4821 112.503 24.0344 111.951 24.0344C111.399 24.0344 110.951 24.4821 110.951 25.0344C110.951 25.5867 111.399 26.0344 111.951 26.0344Z" fill="#4F279B"/>
<path d="M124.368 26.0344C124.92 26.0344 125.368 25.5867 125.368 25.0344C125.368 24.4821 124.92 24.0344 124.368 24.0344C123.815 24.0344 123.368 24.4821 123.368 25.0344C123.368 25.5867 123.815 26.0344 124.368 26.0344Z" fill="#4F279B"/>
<path d="M136.784 26.0344C137.337 26.0344 137.784 25.5867 137.784 25.0344C137.784 24.4821 137.337 24.0344 136.784 24.0344C136.232 24.0344 135.784 24.4821 135.784 25.0344C135.784 25.5867 136.232 26.0344 136.784 26.0344Z" fill="#4F279B"/>
<path d="M149.201 26.0344C149.753 26.0344 150.201 25.5867 150.201 25.0344C150.201 24.4821 149.753 24.0344 149.201 24.0344C148.649 24.0344 148.201 24.4821 148.201 25.0344C148.201 25.5867 148.649 26.0344 149.201 26.0344Z" fill="#4F279B"/>
<path d="M0.20108 38.4512C0.753365 38.4512 1.20108 38.0035 1.20108 37.4512C1.20108 36.8989 0.753365 36.4512 0.20108 36.4512C-0.351204 36.4512 -0.79892 36.8989 -0.79892 37.4512C-0.79892 38.0035 -0.351204 38.4512 0.20108 38.4512Z" fill="#4F279B"/>
<path d="M12.6177 38.4512C13.17 38.4512 13.6177 38.0035 13.6177 37.4512C13.6177 36.8989 13.17 36.4512 12.6177 36.4512C12.0655 36.4512 11.6177 36.8989 11.6177 37.4512C11.6177 38.0035 12.0655 38.4512 12.6177 38.4512Z" fill="#4F279B"/>
<path d="M25.0344 38.4512C25.5867 38.4512 26.0344 38.0035 26.0344 37.4512C26.0344 36.8989 25.5867 36.4512 25.0344 36.4512C24.4821 36.4512 24.0344 36.8989 24.0344 37.4512C24.0344 38.0035 24.4821 38.4512 25.0344 38.4512Z" fill="#4F279B"/>
<path d="M37.4511 38.4512C38.0034 38.4512 38.4511 38.0035 38.4511 37.4512C38.4511 36.8989 38.0034 36.4512 37.4511 36.4512C36.8988 36.4512 36.4511 36.8989 36.4511 37.4512C36.4511 38.0035 36.8988 38.4512 37.4511 38.4512Z" fill="#4F279B"/>
<path d="M49.8677 38.4512C50.42 38.4512 50.8677 38.0035 50.8677 37.4512C50.8677 36.8989 50.42 36.4512 49.8677 36.4512C49.3154 36.4512 48.8677 36.8989 48.8677 37.4512C48.8677 38.0035 49.3154 38.4512 49.8677 38.4512Z" fill="#4F279B"/>
<path d="M62.2844 38.4512C62.8367 38.4512 63.2844 38.0035 63.2844 37.4512C63.2844 36.8989 62.8367 36.4512 62.2844 36.4512C61.7321 36.4512 61.2844 36.8989 61.2844 37.4512C61.2844 38.0035 61.7321 38.4512 62.2844 38.4512Z" fill="#4F279B"/>
<path d="M74.7011 38.4512C75.2534 38.4512 75.7011 38.0035 75.7011 37.4512C75.7011 36.8989 75.2534 36.4512 74.7011 36.4512C74.1488 36.4512 73.7011 36.8989 73.7011 37.4512C73.7011 38.0035 74.1488 38.4512 74.7011 38.4512Z" fill="#4F279B"/>
<path d="M87.1177 38.4512C87.67 38.4512 88.1177 38.0035 88.1177 37.4512C88.1177 36.8989 87.67 36.4512 87.1177 36.4512C86.5654 36.4512 86.1177 36.8989 86.1177 37.4512C86.1177 38.0035 86.5654 38.4512 87.1177 38.4512Z" fill="#4F279B"/>
<path d="M99.5344 38.4512C100.087 38.4512 100.534 38.0035 100.534 37.4512C100.534 36.8989 100.087 36.4512 99.5344 36.4512C98.9821 36.4512 98.5344 36.8989 98.5344 37.4512C98.5344 38.0035 98.9821 38.4512 99.5344 38.4512Z" fill="#4F279B"/>
<path d="M111.951 38.4512C112.503 38.4512 112.951 38.0035 112.951 37.4512C112.951 36.8989 112.503 36.4512 111.951 36.4512C111.399 36.4512 110.951 36.8989 110.951 37.4512C110.951 38.0035 111.399 38.4512 111.951 38.4512Z" fill="#4F279B"/>
<path d="M124.368 38.4512C124.92 38.4512 125.368 38.0035 125.368 37.4512C125.368 36.8989 124.92 36.4512 124.368 36.4512C123.815 36.4512 123.368 36.8989 123.368 37.4512C123.368 38.0035 123.815 38.4512 124.368 38.4512Z" fill="#4F279B"/>
<path d="M136.784 38.4512C137.337 38.4512 137.784 38.0035 137.784 37.4512C137.784 36.8989 137.337 36.4512 136.784 36.4512C136.232 36.4512 135.784 36.8989 135.784 37.4512C135.784 38.0035 136.232 38.4512 136.784 38.4512Z" fill="#4F279B"/>
<path d="M149.201 38.4512C149.753 38.4512 150.201 38.0035 150.201 37.4512C150.201 36.8989 149.753 36.4512 149.201 36.4512C148.649 36.4512 148.201 36.8989 148.201 37.4512C148.201 38.0035 148.649 38.4512 149.201 38.4512Z" fill="#4F279B"/>
<path d="M0.20108 50.8679C0.753365 50.8679 1.20108 50.4202 1.20108 49.8679C1.20108 49.3156 0.753365 48.8679 0.20108 48.8679C-0.351204 48.8679 -0.79892 49.3156 -0.79892 49.8679C-0.79892 50.4202 -0.351204 50.8679 0.20108 50.8679Z" fill="#4F279B"/>
<path d="M12.6177 50.8679C13.17 50.8679 13.6177 50.4202 13.6177 49.8679C13.6177 49.3156 13.17 48.8679 12.6177 48.8679C12.0655 48.8679 11.6177 49.3156 11.6177 49.8679C11.6177 50.4202 12.0655 50.8679 12.6177 50.8679Z" fill="#4F279B"/>
<path d="M25.0344 50.8679C25.5867 50.8679 26.0344 50.4202 26.0344 49.8679C26.0344 49.3156 25.5867 48.8679 25.0344 48.8679C24.4821 48.8679 24.0344 49.3156 24.0344 49.8679C24.0344 50.4202 24.4821 50.8679 25.0344 50.8679Z" fill="#4F279B"/>
<path d="M37.4511 50.8679C38.0034 50.8679 38.4511 50.4202 38.4511 49.8679C38.4511 49.3156 38.0034 48.8679 37.4511 48.8679C36.8988 48.8679 36.4511 49.3156 36.4511 49.8679C36.4511 50.4202 36.8988 50.8679 37.4511 50.8679Z" fill="#4F279B"/>
<path d="M49.8677 50.8679C50.42 50.8679 50.8677 50.4202 50.8677 49.8679C50.8677 49.3156 50.42 48.8679 49.8677 48.8679C49.3154 48.8679 48.8677 49.3156 48.8677 49.8679C48.8677 50.4202 49.3154 50.8679 49.8677 50.8679Z" fill="#4F279B"/>
<path d="M62.2844 50.8679C62.8367 50.8679 63.2844 50.4202 63.2844 49.8679C63.2844 49.3156 62.8367 48.8679 62.2844 48.8679C61.7321 48.8679 61.2844 49.3156 61.2844 49.8679C61.2844 50.4202 61.7321 50.8679 62.2844 50.8679Z" fill="#4F279B"/>
<path d="M74.7011 50.8679C75.2534 50.8679 75.7011 50.4202 75.7011 49.8679C75.7011 49.3156 75.2534 48.8679 74.7011 48.8679C74.1488 48.8679 73.7011 49.3156 73.7011 49.8679C73.7011 50.4202 74.1488 50.8679 74.7011 50.8679Z" fill="#4F279B"/>
<path d="M87.1177 50.8679C87.67 50.8679 88.1177 50.4202 88.1177 49.8679C88.1177 49.3156 87.67 48.8679 87.1177 48.8679C86.5654 48.8679 86.1177 49.3156 86.1177 49.8679C86.1177 50.4202 86.5654 50.8679 87.1177 50.8679Z" fill="#4F279B"/>
<path d="M99.5344 50.8679C100.087 50.8679 100.534 50.4202 100.534 49.8679C100.534 49.3156 100.087 48.8679 99.5344 48.8679C98.9821 48.8679 98.5344 49.3156 98.5344 49.8679C98.5344 50.4202 98.9821 50.8679 99.5344 50.8679Z" fill="#4F279B"/>
<path d="M111.951 50.8679C112.503 50.8679 112.951 50.4202 112.951 49.8679C112.951 49.3156 112.503 48.8679 111.951 48.8679C111.399 48.8679 110.951 49.3156 110.951 49.8679C110.951 50.4202 111.399 50.8679 111.951 50.8679Z" fill="#4F279B"/>
<path d="M124.368 50.8679C124.92 50.8679 125.368 50.4202 125.368 49.8679C125.368 49.3156 124.92 48.8679 124.368 48.8679C123.815 48.8679 123.368 49.3156 123.368 49.8679C123.368 50.4202 123.815 50.8679 124.368 50.8679Z" fill="#4F279B"/>
<path d="M136.784 50.8679C137.337 50.8679 137.784 50.4202 137.784 49.8679C137.784 49.3156 137.337 48.8679 136.784 48.8679C136.232 48.8679 135.784 49.3156 135.784 49.8679C135.784 50.4202 136.232 50.8679 136.784 50.8679Z" fill="#4F279B"/>
<path d="M149.201 50.8679C149.753 50.8679 150.201 50.4202 150.201 49.8679C150.201 49.3156 149.753 48.8679 149.201 48.8679C148.649 48.8679 148.201 49.3156 148.201 49.8679C148.201 50.4202 148.649 50.8679 149.201 50.8679Z" fill="#4F279B"/>
<path d="M0.20108 63.2844C0.753365 63.2844 1.20108 62.8367 1.20108 62.2844C1.20108 61.7321 0.753365 61.2844 0.20108 61.2844C-0.351204 61.2844 -0.79892 61.7321 -0.79892 62.2844C-0.79892 62.8367 -0.351204 63.2844 0.20108 63.2844Z" fill="#4F279B"/>
<path d="M12.6177 63.2844C13.17 63.2844 13.6177 62.8367 13.6177 62.2844C13.6177 61.7321 13.17 61.2844 12.6177 61.2844C12.0655 61.2844 11.6177 61.7321 11.6177 62.2844C11.6177 62.8367 12.0655 63.2844 12.6177 63.2844Z" fill="#4F279B"/>
<path d="M25.0344 63.2844C25.5867 63.2844 26.0344 62.8367 26.0344 62.2844C26.0344 61.7321 25.5867 61.2844 25.0344 61.2844C24.4821 61.2844 24.0344 61.7321 24.0344 62.2844C24.0344 62.8367 24.4821 63.2844 25.0344 63.2844Z" fill="#4F279B"/>
<path d="M37.4511 63.2844C38.0034 63.2844 38.4511 62.8367 38.4511 62.2844C38.4511 61.7321 38.0034 61.2844 37.4511 61.2844C36.8988 61.2844 36.4511 61.7321 36.4511 62.2844C36.4511 62.8367 36.8988 63.2844 37.4511 63.2844Z" fill="#4F279B"/>
<path d="M49.8677 63.2844C50.42 63.2844 50.8677 62.8367 50.8677 62.2844C50.8677 61.7321 50.42 61.2844 49.8677 61.2844C49.3154 61.2844 48.8677 61.7321 48.8677 62.2844C48.8677 62.8367 49.3154 63.2844 49.8677 63.2844Z" fill="#4F279B"/>
<path d="M62.2844 63.2844C62.8367 63.2844 63.2844 62.8367 63.2844 62.2844C63.2844 61.7321 62.8367 61.2844 62.2844 61.2844C61.7321 61.2844 61.2844 61.7321 61.2844 62.2844C61.2844 62.8367 61.7321 63.2844 62.2844 63.2844Z" fill="#4F279B"/>
<path d="M74.7011 63.2844C75.2534 63.2844 75.7011 62.8367 75.7011 62.2844C75.7011 61.7321 75.2534 61.2844 74.7011 61.2844C74.1488 61.2844 73.7011 61.7321 73.7011 62.2844C73.7011 62.8367 74.1488 63.2844 74.7011 63.2844Z" fill="#4F279B"/>
<path d="M87.1177 63.2844C87.67 63.2844 88.1177 62.8367 88.1177 62.2844C88.1177 61.7321 87.67 61.2844 87.1177 61.2844C86.5654 61.2844 86.1177 61.7321 86.1177 62.2844C86.1177 62.8367 86.5654 63.2844 87.1177 63.2844Z" fill="#4F279B"/>
<path d="M99.5344 63.2844C100.087 63.2844 100.534 62.8367 100.534 62.2844C100.534 61.7321 100.087 61.2844 99.5344 61.2844C98.9821 61.2844 98.5344 61.7321 98.5344 62.2844C98.5344 62.8367 98.9821 63.2844 99.5344 63.2844Z" fill="#4F279B"/>
<path d="M111.951 63.2844C112.503 63.2844 112.951 62.8367 112.951 62.2844C112.951 61.7321 112.503 61.2844 111.951 61.2844C111.399 61.2844 110.951 61.7321 110.951 62.2844C110.951 62.8367 111.399 63.2844 111.951 63.2844Z" fill="#4F279B"/>
<path d="M124.368 63.2844C124.92 63.2844 125.368 62.8367 125.368 62.2844C125.368 61.7321 124.92 61.2844 124.368 61.2844C123.815 61.2844 123.368 61.7321 123.368 62.2844C123.368 62.8367 123.815 63.2844 124.368 63.2844Z" fill="#4F279B"/>
<path d="M136.784 63.2844C137.337 63.2844 137.784 62.8367 137.784 62.2844C137.784 61.7321 137.337 61.2844 136.784 61.2844C136.232 61.2844 135.784 61.7321 135.784 62.2844C135.784 62.8367 136.232 63.2844 136.784 63.2844Z" fill="#4F279B"/>
<path d="M149.201 63.2844C149.753 63.2844 150.201 62.8367 150.201 62.2844C150.201 61.7321 149.753 61.2844 149.201 61.2844C148.649 61.2844 148.201 61.7321 148.201 62.2844C148.201 62.8367 148.649 63.2844 149.201 63.2844Z" fill="#4F279B"/>
<path d="M0.20108 75.7012C0.753365 75.7012 1.20108 75.2535 1.20108 74.7012C1.20108 74.1489 0.753365 73.7012 0.20108 73.7012C-0.351204 73.7012 -0.79892 74.1489 -0.79892 74.7012C-0.79892 75.2535 -0.351204 75.7012 0.20108 75.7012Z" fill="#4F279B"/>
<path d="M12.6177 75.7012C13.17 75.7012 13.6177 75.2535 13.6177 74.7012C13.6177 74.1489 13.17 73.7012 12.6177 73.7012C12.0655 73.7012 11.6177 74.1489 11.6177 74.7012C11.6177 75.2535 12.0655 75.7012 12.6177 75.7012Z" fill="#4F279B"/>
<path d="M25.0344 75.7012C25.5867 75.7012 26.0344 75.2535 26.0344 74.7012C26.0344 74.1489 25.5867 73.7012 25.0344 73.7012C24.4821 73.7012 24.0344 74.1489 24.0344 74.7012C24.0344 75.2535 24.4821 75.7012 25.0344 75.7012Z" fill="#4F279B"/>
<path d="M37.4511 75.7012C38.0034 75.7012 38.4511 75.2535 38.4511 74.7012C38.4511 74.1489 38.0034 73.7012 37.4511 73.7012C36.8988 73.7012 36.4511 74.1489 36.4511 74.7012C36.4511 75.2535 36.8988 75.7012 37.4511 75.7012Z" fill="#4F279B"/>
<path d="M49.8677 75.7012C50.42 75.7012 50.8677 75.2535 50.8677 74.7012C50.8677 74.1489 50.42 73.7012 49.8677 73.7012C49.3154 73.7012 48.8677 74.1489 48.8677 74.7012C48.8677 75.2535 49.3154 75.7012 49.8677 75.7012Z" fill="#4F279B"/>
<path d="M62.2844 75.7012C62.8367 75.7012 63.2844 75.2535 63.2844 74.7012C63.2844 74.1489 62.8367 73.7012 62.2844 73.7012C61.7321 73.7012 61.2844 74.1489 61.2844 74.7012C61.2844 75.2535 61.7321 75.7012 62.2844 75.7012Z" fill="#4F279B"/>
<path d="M74.7011 75.7012C75.2534 75.7012 75.7011 75.2535 75.7011 74.7012C75.7011 74.1489 75.2534 73.7012 74.7011 73.7012C74.1488 73.7012 73.7011 74.1489 73.7011 74.7012C73.7011 75.2535 74.1488 75.7012 74.7011 75.7012Z" fill="#4F279B"/>
<path d="M87.1177 75.7012C87.67 75.7012 88.1177 75.2535 88.1177 74.7012C88.1177 74.1489 87.67 73.7012 87.1177 73.7012C86.5654 73.7012 86.1177 74.1489 86.1177 74.7012C86.1177 75.2535 86.5654 75.7012 87.1177 75.7012Z" fill="#4F279B"/>
<path d="M99.5344 75.7012C100.087 75.7012 100.534 75.2535 100.534 74.7012C100.534 74.1489 100.087 73.7012 99.5344 73.7012C98.9821 73.7012 98.5344 74.1489 98.5344 74.7012C98.5344 75.2535 98.9821 75.7012 99.5344 75.7012Z" fill="#4F279B"/>
<path d="M111.951 75.7012C112.503 75.7012 112.951 75.2535 112.951 74.7012C112.951 74.1489 112.503 73.7012 111.951 73.7012C111.399 73.7012 110.951 74.1489 110.951 74.7012C110.951 75.2535 111.399 75.7012 111.951 75.7012Z" fill="#4F279B"/>
<path d="M124.368 75.7012C124.92 75.7012 125.368 75.2535 125.368 74.7012C125.368 74.1489 124.92 73.7012 124.368 73.7012C123.815 73.7012 123.368 74.1489 123.368 74.7012C123.368 75.2535 123.815 75.7012 124.368 75.7012Z" fill="#4F279B"/>
<path d="M136.784 75.7012C137.337 75.7012 137.784 75.2535 137.784 74.7012C137.784 74.1489 137.337 73.7012 136.784 73.7012C136.232 73.7012 135.784 74.1489 135.784 74.7012C135.784 75.2535 136.232 75.7012 136.784 75.7012Z" fill="#4F279B"/>
<path d="M149.201 75.7012C149.753 75.7012 150.201 75.2535 150.201 74.7012C150.201 74.1489 149.753 73.7012 149.201 73.7012C148.649 73.7012 148.201 74.1489 148.201 74.7012C148.201 75.2535 148.649 75.7012 149.201 75.7012Z" fill="#4F279B"/>
<path d="M0.20108 88.1179C0.753365 88.1179 1.20108 87.6702 1.20108 87.1179C1.20108 86.5656 0.753365 86.1179 0.20108 86.1179C-0.351204 86.1179 -0.79892 86.5656 -0.79892 87.1179C-0.79892 87.6702 -0.351204 88.1179 0.20108 88.1179Z" fill="#4F279B"/>
<path d="M12.6177 88.1179C13.17 88.1179 13.6177 87.6702 13.6177 87.1179C13.6177 86.5656 13.17 86.1179 12.6177 86.1179C12.0655 86.1179 11.6177 86.5656 11.6177 87.1179C11.6177 87.6702 12.0655 88.1179 12.6177 88.1179Z" fill="#4F279B"/>
<path d="M25.0344 88.1179C25.5867 88.1179 26.0344 87.6702 26.0344 87.1179C26.0344 86.5656 25.5867 86.1179 25.0344 86.1179C24.4821 86.1179 24.0344 86.5656 24.0344 87.1179C24.0344 87.6702 24.4821 88.1179 25.0344 88.1179Z" fill="#4F279B"/>
<path d="M37.4511 88.1179C38.0034 88.1179 38.4511 87.6702 38.4511 87.1179C38.4511 86.5656 38.0034 86.1179 37.4511 86.1179C36.8988 86.1179 36.4511 86.5656 36.4511 87.1179C36.4511 87.6702 36.8988 88.1179 37.4511 88.1179Z" fill="#4F279B"/>
<path d="M49.8677 88.1179C50.42 88.1179 50.8677 87.6702 50.8677 87.1179C50.8677 86.5656 50.42 86.1179 49.8677 86.1179C49.3154 86.1179 48.8677 86.5656 48.8677 87.1179C48.8677 87.6702 49.3154 88.1179 49.8677 88.1179Z" fill="#4F279B"/>
<path d="M62.2844 88.1179C62.8367 88.1179 63.2844 87.6702 63.2844 87.1179C63.2844 86.5656 62.8367 86.1179 62.2844 86.1179C61.7321 86.1179 61.2844 86.5656 61.2844 87.1179C61.2844 87.6702 61.7321 88.1179 62.2844 88.1179Z" fill="#4F279B"/>
<path d="M74.7011 88.1179C75.2534 88.1179 75.7011 87.6702 75.7011 87.1179C75.7011 86.5656 75.2534 86.1179 74.7011 86.1179C74.1488 86.1179 73.7011 86.5656 73.7011 87.1179C73.7011 87.6702 74.1488 88.1179 74.7011 88.1179Z" fill="#4F279B"/>
<path d="M87.1177 88.1179C87.67 88.1179 88.1177 87.6702 88.1177 87.1179C88.1177 86.5656 87.67 86.1179 87.1177 86.1179C86.5654 86.1179 86.1177 86.5656 86.1177 87.1179C86.1177 87.6702 86.5654 88.1179 87.1177 88.1179Z" fill="#4F279B"/>
<path d="M99.5344 88.1179C100.087 88.1179 100.534 87.6702 100.534 87.1179C100.534 86.5656 100.087 86.1179 99.5344 86.1179C98.9821 86.1179 98.5344 86.5656 98.5344 87.1179C98.5344 87.6702 98.9821 88.1179 99.5344 88.1179Z" fill="#4F279B"/>
<path d="M111.951 88.1179C112.503 88.1179 112.951 87.6702 112.951 87.1179C112.951 86.5656 112.503 86.1179 111.951 86.1179C111.399 86.1179 110.951 86.5656 110.951 87.1179C110.951 87.6702 111.399 88.1179 111.951 88.1179Z" fill="#4F279B"/>
<path d="M124.368 88.1179C124.92 88.1179 125.368 87.6702 125.368 87.1179C125.368 86.5656 124.92 86.1179 124.368 86.1179C123.815 86.1179 123.368 86.5656 123.368 87.1179C123.368 87.6702 123.815 88.1179 124.368 88.1179Z" fill="#4F279B"/>
<path d="M136.784 88.1179C137.337 88.1179 137.784 87.6702 137.784 87.1179C137.784 86.5656 137.337 86.1179 136.784 86.1179C136.232 86.1179 135.784 86.5656 135.784 87.1179C135.784 87.6702 136.232 88.1179 136.784 88.1179Z" fill="#4F279B"/>
<path d="M149.201 88.1179C149.753 88.1179 150.201 87.6702 150.201 87.1179C150.201 86.5656 149.753 86.1179 149.201 86.1179C148.649 86.1179 148.201 86.5656 148.201 87.1179C148.201 87.6702 148.649 88.1179 149.201 88.1179Z" fill="#4F279B"/>
<path d="M0.20108 100.535C0.753365 100.535 1.20108 100.087 1.20108 99.5345C1.20108 98.9823 0.753365 98.5345 0.20108 98.5345C-0.351204 98.5345 -0.79892 98.9823 -0.79892 99.5345C-0.79892 100.087 -0.351204 100.535 0.20108 100.535Z" fill="#4F279B"/>
<path d="M12.6177 100.535C13.17 100.535 13.6177 100.087 13.6177 99.5345C13.6177 98.9823 13.17 98.5345 12.6177 98.5345C12.0655 98.5345 11.6177 98.9823 11.6177 99.5345C11.6177 100.087 12.0655 100.535 12.6177 100.535Z" fill="#4F279B"/>
<path d="M25.0344 100.535C25.5867 100.535 26.0344 100.087 26.0344 99.5345C26.0344 98.9823 25.5867 98.5345 25.0344 98.5345C24.4821 98.5345 24.0344 98.9823 24.0344 99.5345C24.0344 100.087 24.4821 100.535 25.0344 100.535Z" fill="#4F279B"/>
<path d="M37.4511 100.535C38.0034 100.535 38.4511 100.087 38.4511 99.5345C38.4511 98.9823 38.0034 98.5345 37.4511 98.5345C36.8988 98.5345 36.4511 98.9823 36.4511 99.5345C36.4511 100.087 36.8988 100.535 37.4511 100.535Z" fill="#4F279B"/>
<path d="M49.8677 100.535C50.42 100.535 50.8677 100.087 50.8677 99.5345C50.8677 98.9823 50.42 98.5345 49.8677 98.5345C49.3154 98.5345 48.8677 98.9823 48.8677 99.5345C48.8677 100.087 49.3154 100.535 49.8677 100.535Z" fill="#4F279B"/>
<path d="M62.2844 100.535C62.8367 100.535 63.2844 100.087 63.2844 99.5345C63.2844 98.9823 62.8367 98.5345 62.2844 98.5345C61.7321 98.5345 61.2844 98.9823 61.2844 99.5345C61.2844 100.087 61.7321 100.535 62.2844 100.535Z" fill="#4F279B"/>
<path d="M74.7011 100.535C75.2534 100.535 75.7011 100.087 75.7011 99.5345C75.7011 98.9823 75.2534 98.5345 74.7011 98.5345C74.1488 98.5345 73.7011 98.9823 73.7011 99.5345C73.7011 100.087 74.1488 100.535 74.7011 100.535Z" fill="#4F279B"/>
<path d="M87.1177 100.535C87.67 100.535 88.1177 100.087 88.1177 99.5345C88.1177 98.9823 87.67 98.5345 87.1177 98.5345C86.5654 98.5345 86.1177 98.9823 86.1177 99.5345C86.1177 100.087 86.5654 100.535 87.1177 100.535Z" fill="#4F279B"/>
<path d="M99.5344 100.535C100.087 100.535 100.534 100.087 100.534 99.5345C100.534 98.9823 100.087 98.5345 99.5344 98.5345C98.9821 98.5345 98.5344 98.9823 98.5344 99.5345C98.5344 100.087 98.9821 100.535 99.5344 100.535Z" fill="#4F279B"/>
<path d="M111.951 100.535C112.503 100.535 112.951 100.087 112.951 99.5345C112.951 98.9823 112.503 98.5345 111.951 98.5345C111.399 98.5345 110.951 98.9823 110.951 99.5345C110.951 100.087 111.399 100.535 111.951 100.535Z" fill="#4F279B"/>
<path d="M124.368 100.535C124.92 100.535 125.368 100.087 125.368 99.5345C125.368 98.9823 124.92 98.5345 124.368 98.5345C123.815 98.5345 123.368 98.9823 123.368 99.5345C123.368 100.087 123.815 100.535 124.368 100.535Z" fill="#4F279B"/>
<path d="M136.784 100.535C137.337 100.535 137.784 100.087 137.784 99.5345C137.784 98.9823 137.337 98.5345 136.784 98.5345C136.232 98.5345 135.784 98.9823 135.784 99.5345C135.784 100.087 136.232 100.535 136.784 100.535Z" fill="#4F279B"/>
<path d="M149.201 100.535C149.753 100.535 150.201 100.087 150.201 99.5345C150.201 98.9823 149.753 98.5345 149.201 98.5345C148.649 98.5345 148.201 98.9823 148.201 99.5345C148.201 100.087 148.649 100.535 149.201 100.535Z" fill="#4F279B"/>
<path d="M0.20108 112.951C0.753365 112.951 1.20108 112.503 1.20108 111.951C1.20108 111.399 0.753365 110.951 0.20108 110.951C-0.351204 110.951 -0.79892 111.399 -0.79892 111.951C-0.79892 112.503 -0.351204 112.951 0.20108 112.951Z" fill="#4F279B"/>
<path d="M12.6177 112.951C13.17 112.951 13.6177 112.503 13.6177 111.951C13.6177 111.399 13.17 110.951 12.6177 110.951C12.0655 110.951 11.6177 111.399 11.6177 111.951C11.6177 112.503 12.0655 112.951 12.6177 112.951Z" fill="#4F279B"/>
<path d="M25.0344 112.951C25.5867 112.951 26.0344 112.503 26.0344 111.951C26.0344 111.399 25.5867 110.951 25.0344 110.951C24.4821 110.951 24.0344 111.399 24.0344 111.951C24.0344 112.503 24.4821 112.951 25.0344 112.951Z" fill="#4F279B"/>
<path d="M37.4511 112.951C38.0034 112.951 38.4511 112.503 38.4511 111.951C38.4511 111.399 38.0034 110.951 37.4511 110.951C36.8988 110.951 36.4511 111.399 36.4511 111.951C36.4511 112.503 36.8988 112.951 37.4511 112.951Z" fill="#4F279B"/>
<path d="M49.8677 112.951C50.42 112.951 50.8677 112.503 50.8677 111.951C50.8677 111.399 50.42 110.951 49.8677 110.951C49.3154 110.951 48.8677 111.399 48.8677 111.951C48.8677 112.503 49.3154 112.951 49.8677 112.951Z" fill="#4F279B"/>
<path d="M62.2844 112.951C62.8367 112.951 63.2844 112.503 63.2844 111.951C63.2844 111.399 62.8367 110.951 62.2844 110.951C61.7321 110.951 61.2844 111.399 61.2844 111.951C61.2844 112.503 61.7321 112.951 62.2844 112.951Z" fill="#4F279B"/>
<path d="M74.7011 112.951C75.2534 112.951 75.7011 112.503 75.7011 111.951C75.7011 111.399 75.2534 110.951 74.7011 110.951C74.1488 110.951 73.7011 111.399 73.7011 111.951C73.7011 112.503 74.1488 112.951 74.7011 112.951Z" fill="#4F279B"/>
<path d="M87.1177 112.951C87.67 112.951 88.1177 112.503 88.1177 111.951C88.1177 111.399 87.67 110.951 87.1177 110.951C86.5654 110.951 86.1177 111.399 86.1177 111.951C86.1177 112.503 86.5654 112.951 87.1177 112.951Z" fill="#4F279B"/>
<path d="M99.5344 112.951C100.087 112.951 100.534 112.503 100.534 111.951C100.534 111.399 100.087 110.951 99.5344 110.951C98.9821 110.951 98.5344 111.399 98.5344 111.951C98.5344 112.503 98.9821 112.951 99.5344 112.951Z" fill="#4F279B"/>
<path d="M111.951 112.951C112.503 112.951 112.951 112.503 112.951 111.951C112.951 111.399 112.503 110.951 111.951 110.951C111.399 110.951 110.951 111.399 110.951 111.951C110.951 112.503 111.399 112.951 111.951 112.951Z" fill="#4F279B"/>
<path d="M124.368 112.951C124.92 112.951 125.368 112.503 125.368 111.951C125.368 111.399 124.92 110.951 124.368 110.951C123.815 110.951 123.368 111.399 123.368 111.951C123.368 112.503 123.815 112.951 124.368 112.951Z" fill="#4F279B"/>
<path d="M136.784 112.951C137.337 112.951 137.784 112.503 137.784 111.951C137.784 111.399 137.337 110.951 136.784 110.951C136.232 110.951 135.784 111.399 135.784 111.951C135.784 112.503 136.232 112.951 136.784 112.951Z" fill="#4F279B"/>
<path d="M149.201 112.951C149.753 112.951 150.201 112.503 150.201 111.951C150.201 111.399 149.753 110.951 149.201 110.951C148.649 110.951 148.201 111.399 148.201 111.951C148.201 112.503 148.649 112.951 149.201 112.951Z" fill="#4F279B"/>
<path d="M0.20108 125.368C0.753365 125.368 1.20108 124.92 1.20108 124.368C1.20108 123.816 0.753365 123.368 0.20108 123.368C-0.351204 123.368 -0.79892 123.816 -0.79892 124.368C-0.79892 124.92 -0.351204 125.368 0.20108 125.368Z" fill="#4F279B"/>
<path d="M12.6177 125.368C13.17 125.368 13.6177 124.92 13.6177 124.368C13.6177 123.816 13.17 123.368 12.6177 123.368C12.0655 123.368 11.6177 123.816 11.6177 124.368C11.6177 124.92 12.0655 125.368 12.6177 125.368Z" fill="#4F279B"/>
<path d="M25.0344 125.368C25.5867 125.368 26.0344 124.92 26.0344 124.368C26.0344 123.816 25.5867 123.368 25.0344 123.368C24.4821 123.368 24.0344 123.816 24.0344 124.368C24.0344 124.92 24.4821 125.368 25.0344 125.368Z" fill="#4F279B"/>
<path d="M37.4511 125.368C38.0034 125.368 38.4511 124.92 38.4511 124.368C38.4511 123.816 38.0034 123.368 37.4511 123.368C36.8988 123.368 36.4511 123.816 36.4511 124.368C36.4511 124.92 36.8988 125.368 37.4511 125.368Z" fill="#4F279B"/>
<path d="M49.8677 125.368C50.42 125.368 50.8677 124.92 50.8677 124.368C50.8677 123.816 50.42 123.368 49.8677 123.368C49.3154 123.368 48.8677 123.816 48.8677 124.368C48.8677 124.92 49.3154 125.368 49.8677 125.368Z" fill="#4F279B"/>
<path d="M62.2844 125.368C62.8367 125.368 63.2844 124.92 63.2844 124.368C63.2844 123.816 62.8367 123.368 62.2844 123.368C61.7321 123.368 61.2844 123.816 61.2844 124.368C61.2844 124.92 61.7321 125.368 62.2844 125.368Z" fill="#4F279B"/>
<path d="M74.7011 125.368C75.2534 125.368 75.7011 124.92 75.7011 124.368C75.7011 123.816 75.2534 123.368 74.7011 123.368C74.1488 123.368 73.7011 123.816 73.7011 124.368C73.7011 124.92 74.1488 125.368 74.7011 125.368Z" fill="#4F279B"/>
<path d="M87.1177 125.368C87.67 125.368 88.1177 124.92 88.1177 124.368C88.1177 123.816 87.67 123.368 87.1177 123.368C86.5654 123.368 86.1177 123.816 86.1177 124.368C86.1177 124.92 86.5654 125.368 87.1177 125.368Z" fill="#4F279B"/>
<path d="M99.5344 125.368C100.087 125.368 100.534 124.92 100.534 124.368C100.534 123.816 100.087 123.368 99.5344 123.368C98.9821 123.368 98.5344 123.816 98.5344 124.368C98.5344 124.92 98.9821 125.368 99.5344 125.368Z" fill="#4F279B"/>
<path d="M111.951 125.368C112.503 125.368 112.951 124.92 112.951 124.368C112.951 123.816 112.503 123.368 111.951 123.368C111.399 123.368 110.951 123.816 110.951 124.368C110.951 124.92 111.399 125.368 111.951 125.368Z" fill="#4F279B"/>
<path d="M124.368 125.368C124.92 125.368 125.368 124.92 125.368 124.368C125.368 123.816 124.92 123.368 124.368 123.368C123.815 123.368 123.368 123.816 123.368 124.368C123.368 124.92 123.815 125.368 124.368 125.368Z" fill="#4F279B"/>
<path d="M136.784 125.368C137.337 125.368 137.784 124.92 137.784 124.368C137.784 123.816 137.337 123.368 136.784 123.368C136.232 123.368 135.784 123.816 135.784 124.368C135.784 124.92 136.232 125.368 136.784 125.368Z" fill="#4F279B"/>
<path d="M149.201 125.368C149.753 125.368 150.201 124.92 150.201 124.368C150.201 123.816 149.753 123.368 149.201 123.368C148.649 123.368 148.201 123.816 148.201 124.368C148.201 124.92 148.649 125.368 149.201 125.368Z" fill="#4F279B"/>
<path d="M0.20108 137.785C0.753365 137.785 1.20108 137.337 1.20108 136.785C1.20108 136.232 0.753365 135.785 0.20108 135.785C-0.351204 135.785 -0.79892 136.232 -0.79892 136.785C-0.79892 137.337 -0.351204 137.785 0.20108 137.785Z" fill="#4F279B"/>
<path d="M12.6177 137.785C13.17 137.785 13.6177 137.337 13.6177 136.785C13.6177 136.232 13.17 135.785 12.6177 135.785C12.0655 135.785 11.6177 136.232 11.6177 136.785C11.6177 137.337 12.0655 137.785 12.6177 137.785Z" fill="#4F279B"/>
<path d="M25.0344 137.785C25.5867 137.785 26.0344 137.337 26.0344 136.785C26.0344 136.232 25.5867 135.785 25.0344 135.785C24.4821 135.785 24.0344 136.232 24.0344 136.785C24.0344 137.337 24.4821 137.785 25.0344 137.785Z" fill="#4F279B"/>
<path d="M37.4511 137.785C38.0034 137.785 38.4511 137.337 38.4511 136.785C38.4511 136.232 38.0034 135.785 37.4511 135.785C36.8988 135.785 36.4511 136.232 36.4511 136.785C36.4511 137.337 36.8988 137.785 37.4511 137.785Z" fill="#4F279B"/>
<path d="M49.8677 137.785C50.42 137.785 50.8677 137.337 50.8677 136.785C50.8677 136.232 50.42 135.785 49.8677 135.785C49.3154 135.785 48.8677 136.232 48.8677 136.785C48.8677 137.337 49.3154 137.785 49.8677 137.785Z" fill="#4F279B"/>
<path d="M62.2844 137.785C62.8367 137.785 63.2844 137.337 63.2844 136.785C63.2844 136.232 62.8367 135.785 62.2844 135.785C61.7321 135.785 61.2844 136.232 61.2844 136.785C61.2844 137.337 61.7321 137.785 62.2844 137.785Z" fill="#4F279B"/>
<path d="M74.7011 137.785C75.2534 137.785 75.7011 137.337 75.7011 136.785C75.7011 136.232 75.2534 135.785 74.7011 135.785C74.1488 135.785 73.7011 136.232 73.7011 136.785C73.7011 137.337 74.1488 137.785 74.7011 137.785Z" fill="#4F279B"/>
<path d="M87.1177 137.785C87.67 137.785 88.1177 137.337 88.1177 136.785C88.1177 136.232 87.67 135.785 87.1177 135.785C86.5654 135.785 86.1177 136.232 86.1177 136.785C86.1177 137.337 86.5654 137.785 87.1177 137.785Z" fill="#4F279B"/>
<path d="M99.5344 137.785C100.087 137.785 100.534 137.337 100.534 136.785C100.534 136.232 100.087 135.785 99.5344 135.785C98.9821 135.785 98.5344 136.232 98.5344 136.785C98.5344 137.337 98.9821 137.785 99.5344 137.785Z" fill="#4F279B"/>
<path d="M111.951 137.785C112.503 137.785 112.951 137.337 112.951 136.785C112.951 136.232 112.503 135.785 111.951 135.785C111.399 135.785 110.951 136.232 110.951 136.785C110.951 137.337 111.399 137.785 111.951 137.785Z" fill="#4F279B"/>
<path d="M124.368 137.785C124.92 137.785 125.368 137.337 125.368 136.785C125.368 136.232 124.92 135.785 124.368 135.785C123.815 135.785 123.368 136.232 123.368 136.785C123.368 137.337 123.815 137.785 124.368 137.785Z" fill="#4F279B"/>
<path d="M136.784 137.785C137.337 137.785 137.784 137.337 137.784 136.785C137.784 136.232 137.337 135.785 136.784 135.785C136.232 135.785 135.784 136.232 135.784 136.785C135.784 137.337 136.232 137.785 136.784 137.785Z" fill="#4F279B"/>
<path d="M149.201 137.785C149.753 137.785 150.201 137.337 150.201 136.785C150.201 136.232 149.753 135.785 149.201 135.785C148.649 135.785 148.201 136.232 148.201 136.785C148.201 137.337 148.649 137.785 149.201 137.785Z" fill="#4F279B"/>
<path d="M0.20108 150.201C0.753365 150.201 1.20108 149.753 1.20108 149.201C1.20108 148.649 0.753365 148.201 0.20108 148.201C-0.351204 148.201 -0.79892 148.649 -0.79892 149.201C-0.79892 149.753 -0.351204 150.201 0.20108 150.201Z" fill="#4F279B"/>
<path d="M12.6177 150.201C13.17 150.201 13.6177 149.753 13.6177 149.201C13.6177 148.649 13.17 148.201 12.6177 148.201C12.0655 148.201 11.6177 148.649 11.6177 149.201C11.6177 149.753 12.0655 150.201 12.6177 150.201Z" fill="#4F279B"/>
<path d="M25.0344 150.201C25.5867 150.201 26.0344 149.753 26.0344 149.201C26.0344 148.649 25.5867 148.201 25.0344 148.201C24.4821 148.201 24.0344 148.649 24.0344 149.201C24.0344 149.753 24.4821 150.201 25.0344 150.201Z" fill="#4F279B"/>
<path d="M37.4511 150.201C38.0034 150.201 38.4511 149.753 38.4511 149.201C38.4511 148.649 38.0034 148.201 37.4511 148.201C36.8988 148.201 36.4511 148.649 36.4511 149.201C36.4511 149.753 36.8988 150.201 37.4511 150.201Z" fill="#4F279B"/>
<path d="M49.8677 150.201C50.42 150.201 50.8677 149.753 50.8677 149.201C50.8677 148.649 50.42 148.201 49.8677 148.201C49.3154 148.201 48.8677 148.649 48.8677 149.201C48.8677 149.753 49.3154 150.201 49.8677 150.201Z" fill="#4F279B"/>
<path d="M62.2844 150.201C62.8367 150.201 63.2844 149.753 63.2844 149.201C63.2844 148.649 62.8367 148.201 62.2844 148.201C61.7321 148.201 61.2844 148.649 61.2844 149.201C61.2844 149.753 61.7321 150.201 62.2844 150.201Z" fill="#4F279B"/>
<path d="M74.7011 150.201C75.2534 150.201 75.7011 149.753 75.7011 149.201C75.7011 148.649 75.2534 148.201 74.7011 148.201C74.1488 148.201 73.7011 148.649 73.7011 149.201C73.7011 149.753 74.1488 150.201 74.7011 150.201Z" fill="#4F279B"/>
<path d="M87.1177 150.201C87.67 150.201 88.1177 149.753 88.1177 149.201C88.1177 148.649 87.67 148.201 87.1177 148.201C86.5654 148.201 86.1177 148.649 86.1177 149.201C86.1177 149.753 86.5654 150.201 87.1177 150.201Z" fill="#4F279B"/>
<path d="M99.5344 150.201C100.087 150.201 100.534 149.753 100.534 149.201C100.534 148.649 100.087 148.201 99.5344 148.201C98.9821 148.201 98.5344 148.649 98.5344 149.201C98.5344 149.753 98.9821 150.201 99.5344 150.201Z" fill="#4F279B"/>
<path d="M111.951 150.201C112.503 150.201 112.951 149.753 112.951 149.201C112.951 148.649 112.503 148.201 111.951 148.201C111.399 148.201 110.951 148.649 110.951 149.201C110.951 149.753 111.399 150.201 111.951 150.201Z" fill="#4F279B"/>
<path d="M124.368 150.201C124.92 150.201 125.368 149.753 125.368 149.201C125.368 148.649 124.92 148.201 124.368 148.201C123.815 148.201 123.368 148.649 123.368 149.201C123.368 149.753 123.815 150.201 124.368 150.201Z" fill="#4F279B"/>
<path d="M136.784 150.201C137.337 150.201 137.784 149.753 137.784 149.201C137.784 148.649 137.337 148.201 136.784 148.201C136.232 148.201 135.784 148.649 135.784 149.201C135.784 149.753 136.232 150.201 136.784 150.201Z" fill="#4F279B"/>
<path d="M149.201 150.201C149.753 150.201 150.201 149.753 150.201 149.201C150.201 148.649 149.753 148.201 149.201 148.201C148.649 148.201 148.201 148.649 148.201 149.201C148.201 149.753 148.649 150.201 149.201 150.201Z" fill="#4F279B"/>
</g>
<defs>
<clipPath id="clip0_44_728">
<rect width="149" height="149" fill="white"/>
</clipPath>
</defs>
</svg>
