<svg width="131" height="25" viewBox="0 0 131 25" fill="none" xmlns="http://www.w3.org/2000/svg">
<g clip-path="url(#clip0_236_94)">
<path d="M0 19.8701V15.3571L24 0V4.61039L0 19.8701Z" fill="black"/>
<path d="M4.93933 24.9998V19.8699L8.16888 17.8569V24.9998H4.93933Z" fill="black"/>
<path d="M9.27704 25V17.1753L12.5383 15.1299V25H9.27704Z" fill="black"/>
<path d="M13.6781 25V14.3506L16.9393 12.2402V25H13.6781Z" fill="black"/>
<path d="M17.8892 25V11.6883L21.1504 9.54541V25H17.8892Z" fill="black"/>
<path d="M0 19.8701V15.3571L24 0V4.61039L0 19.8701Z" fill="#FF004D"/>
</g>
<path d="M31.8849 18V7.81818H35.902C36.6709 7.81818 37.3272 7.95573 37.8707 8.23082C38.4176 8.5026 38.8336 8.88873 39.1186 9.3892C39.407 9.88636 39.5511 10.4714 39.5511 11.1442C39.5511 11.8203 39.4053 12.402 39.1136 12.8892C38.822 13.3731 38.3994 13.7443 37.8459 14.0028C37.2957 14.2614 36.6295 14.3906 35.8473 14.3906H33.1577V12.6605H35.4993C35.9103 12.6605 36.2517 12.6042 36.5234 12.4915C36.7952 12.3788 36.9974 12.2098 37.13 11.9844C37.2659 11.759 37.3338 11.4789 37.3338 11.1442C37.3338 10.8061 37.2659 10.5211 37.13 10.2891C36.9974 10.0571 36.7936 9.88139 36.5185 9.76207C36.2467 9.63944 35.9036 9.57812 35.4893 9.57812H34.0376V18H31.8849ZM37.3835 13.3665L39.9141 18H37.5376L35.0618 13.3665H37.3835ZM45.1491 7.81818H47.277V14.9176C47.277 15.5739 47.1295 16.1439 46.8345 16.6278C46.5429 17.1117 46.1368 17.4846 45.6165 17.7464C45.0961 18.0083 44.4912 18.1392 43.8018 18.1392C43.1887 18.1392 42.6319 18.0315 42.1314 17.8161C41.6342 17.5973 41.2398 17.2659 40.9482 16.8217C40.6565 16.3743 40.5123 15.8125 40.5156 15.1364H42.6584C42.665 15.4048 42.7197 15.6352 42.8224 15.8274C42.9285 16.0163 43.0727 16.1622 43.255 16.2649C43.4406 16.3643 43.6593 16.4141 43.9112 16.4141C44.1764 16.4141 44.4001 16.3577 44.5824 16.245C44.768 16.129 44.9089 15.96 45.005 15.7379C45.1011 15.5159 45.1491 15.2424 45.1491 14.9176V7.81818ZM54.052 18H51.7452L55.2601 7.81818H58.0343L61.5442 18H59.2374L56.687 10.1449H56.6074L54.052 18ZM53.9078 13.9979H59.3567V15.6783H53.9078V13.9979ZM63.3377 7.81818L65.7987 15.554H65.8931L68.359 7.81818H70.7454L67.2354 18H64.4613L60.9464 7.81818H63.3377ZM72.3723 18H70.0655L73.5804 7.81818H76.3546L79.8645 18H77.5577L75.0073 10.1449H74.9277L72.3723 18ZM72.2282 13.9979H77.677V15.6783H72.2282V13.9979ZM89.6064 7.81818V18H87.747L83.3173 11.5916H83.2427V18H81.09V7.81818H82.9792L87.3741 14.2216H87.4636V7.81818H89.6064ZM100.369 11.3828H98.1911C98.1513 11.1011 98.0701 10.8509 97.9474 10.6321C97.8248 10.41 97.6674 10.2211 97.4751 10.0653C97.2829 9.90956 97.0608 9.79025 96.8089 9.70739C96.5604 9.62453 96.2902 9.5831 95.9986 9.5831C95.4716 9.5831 95.0125 9.71402 94.6214 9.97585C94.2304 10.2344 93.9271 10.6122 93.7116 11.1094C93.4962 11.6032 93.3885 12.2031 93.3885 12.9091C93.3885 13.6349 93.4962 14.2448 93.7116 14.7386C93.9304 15.2325 94.2353 15.6054 94.6264 15.8572C95.0175 16.1091 95.4699 16.2351 95.9837 16.2351C96.272 16.2351 96.5388 16.197 96.7841 16.1207C97.0327 16.0445 97.2531 15.9335 97.4453 15.7876C97.6375 15.6385 97.7966 15.4579 97.9226 15.2457C98.0518 15.0336 98.1413 14.7917 98.1911 14.5199L100.369 14.5298C100.312 14.9972 100.171 15.4479 99.946 15.8821C99.724 16.313 99.424 16.6991 99.0462 17.0405C98.6716 17.3786 98.2242 17.647 97.7038 17.8459C97.1868 18.0414 96.6018 18.1392 95.9489 18.1392C95.0407 18.1392 94.2287 17.9337 93.5128 17.5227C92.8002 17.1117 92.2367 16.5168 91.8224 15.7379C91.4115 14.959 91.206 14.0161 91.206 12.9091C91.206 11.7988 91.4148 10.8542 91.8324 10.0753C92.25 9.2964 92.8168 8.70312 93.5327 8.29545C94.2486 7.88447 95.054 7.67898 95.9489 7.67898C96.5388 7.67898 97.0857 7.76184 97.5895 7.92756C98.0966 8.09328 98.5457 8.33523 98.9368 8.65341C99.3279 8.96828 99.6461 9.3544 99.8913 9.81179C100.14 10.2692 100.299 10.7929 100.369 11.3828ZM101.912 18V7.81818H108.773V9.59304H104.065V12.0192H108.42V13.794H104.065V16.2251H108.793V18H101.912ZM119.001 7.81818V18H117.142L112.712 11.5916H112.637V18H110.485V7.81818H112.374L116.769 14.2216H116.858V7.81818H119.001ZM113.328 6.87855L112.15 6.86364C112.15 6.23059 112.306 5.74503 112.617 5.40696C112.932 5.06889 113.315 4.8982 113.766 4.89489C113.998 4.89489 114.197 4.933 114.362 5.00923C114.531 5.08215 114.682 5.16832 114.815 5.26776C114.951 5.36719 115.08 5.45502 115.203 5.53125C115.325 5.60417 115.458 5.64062 115.6 5.64062C115.793 5.63731 115.938 5.56605 116.038 5.42685C116.141 5.28433 116.192 5.09872 116.192 4.87003L117.35 4.90483C117.344 5.53125 117.185 6.01515 116.873 6.35653C116.561 6.6946 116.182 6.86529 115.735 6.86861C115.486 6.86861 115.277 6.83215 115.108 6.75923C114.942 6.683 114.797 6.59683 114.671 6.50071C114.545 6.40128 114.422 6.31345 114.303 6.23722C114.183 6.16098 114.049 6.12287 113.9 6.12287C113.728 6.12287 113.588 6.19081 113.482 6.3267C113.38 6.46259 113.328 6.64654 113.328 6.87855ZM122.534 18H120.228L123.743 7.81818H126.517L130.027 18H127.72L125.169 10.1449H125.09L122.534 18ZM122.39 13.9979H127.839V15.6783H122.39V13.9979Z" fill="black"/>
<defs>
<clipPath id="clip0_236_94">
<rect width="24" height="25" fill="white"/>
</clipPath>
</defs>
</svg>
